<svg version="1.1" id="Layer_1" xmlns="http://www.w3.org/2000/svg" xmlns:xlink="http://www.w3.org/1999/xlink" x="0px" y="0px"
	 width="100%" viewBox="0 0 1024 1024" enable-background="new 0 0 1024 1024" xml:space="preserve">
<path fill="#000000" opacity="1.000000" stroke="none" 
	d="
M105.957947,703.945923 
	C89.822655,670.316895 77.839890,635.663818 70.714905,599.409912 
	C67.193260,581.490784 64.685036,563.452454 63.702526,545.143372 
	C62.694206,526.353394 62.543594,507.577911 62.882511,488.802094 
	C62.997528,482.430389 64.139946,476.009949 64.083496,469.512329 
	C66.463890,469.625702 65.965019,471.110168 65.994698,472.085236 
	C66.359520,484.072876 65.982613,496.054504 64.760994,507.972321 
	C63.126572,523.917419 65.187401,539.502625 68.308693,555.070374 
	C70.361526,565.309143 73.757057,574.836487 79.974182,583.409790 
	C82.754517,587.243835 86.304321,589.750488 90.148102,592.025818 
	C93.153572,593.804871 94.513908,598.369324 98.250237,598.154480 
	C101.619408,597.960754 103.064583,593.838318 105.792389,591.970703 
	C108.069168,590.411865 110.620895,589.919678 113.382202,589.971191 
	C120.612877,590.106262 121.532799,589.202515 122.614120,581.942200 
	C125.201523,564.569763 124.442039,547.209656 122.710541,529.822083 
	C121.756142,520.238220 121.235413,510.611725 120.422653,501.012634 
	C120.198792,498.368652 119.822800,495.705475 119.182022,493.134491 
	C116.565773,482.637238 116.162918,472.081421 117.988289,461.429443 
	C119.866455,450.469391 119.213387,439.502380 117.877892,428.566559 
	C117.155769,422.653381 114.152565,419.709961 108.239571,418.337433 
	C106.126587,417.846954 104.987045,416.246796 103.735931,414.634857 
	C99.051369,408.599304 97.404961,408.349335 90.338043,411.530640 
	C86.273476,413.360382 81.823967,414.231323 78.576347,417.796234 
	C75.893677,420.740997 74.773849,424.399170 72.970062,427.746674 
	C72.516365,428.588623 72.296425,429.701843 70.294281,429.699493 
	C71.535149,423.114441 72.468552,416.589905 74.014946,410.214050 
	C82.883728,373.647827 96.026367,338.647583 113.818893,305.505981 
	C128.815567,277.572113 146.354294,251.295792 166.909180,227.056076 
	C198.962418,189.256729 236.118500,157.469162 278.436981,131.729660 
	C296.092346,120.991104 314.433350,111.549454 333.792297,104.225838 
	C336.976257,103.021324 339.006409,101.127884 340.635468,98.174858 
	C349.385406,82.313545 362.100586,71.182312 379.807281,66.322113 
	C395.318848,62.064423 410.213745,64.437477 424.236603,71.682121 
	C429.416382,74.358162 434.264740,74.220238 439.582031,73.484184 
	C458.323151,70.889954 477.056763,68.495918 496.001007,67.433464 
	C514.551086,66.393112 532.964600,67.343422 551.358826,68.873734 
	C564.401245,69.958801 577.347046,72.277817 590.305237,74.248077 
	C593.257324,74.696930 595.875000,74.615448 598.463318,73.098473 
	C630.174377,54.513210 665.958374,66.253967 683.414185,96.748535 
	C685.573975,100.521759 688.316345,102.753098 692.217102,104.234398 
	C726.906616,117.407692 758.402344,136.235474 787.631226,158.896790 
	C826.200256,188.799591 859.693665,223.569962 887.345276,263.891479 
	C912.698730,300.861847 931.132690,341.100983 944.416870,383.794525 
	C951.884766,407.795197 956.795532,432.363586 960.162842,457.242035 
	C963.562988,482.363281 964.430359,507.651825 962.975586,532.907593 
	C960.849243,569.822388 955.358398,606.253235 944.177917,641.646545 
	C927.564209,694.239441 902.302368,742.348450 868.765808,786.082336 
	C840.897644,822.424072 807.949524,853.509399 770.627869,880.030884 
	C759.485352,887.949036 747.936890,895.210266 736.285156,902.316833 
	C733.342590,904.111572 731.922729,906.125366 732.481628,909.601074 
	C733.089050,913.378174 732.153320,916.924622 729.908081,919.993286 
	C726.923340,924.072388 722.849609,926.307007 717.779724,925.167419 
	C712.859192,924.061584 710.536255,920.367432 709.625732,915.522095 
	C708.460876,909.323303 706.984619,903.183655 705.759338,896.995361 
	C705.003113,893.175964 703.069824,892.495361 699.653931,894.029419 
	C690.548462,898.118408 681.412903,902.145630 672.214172,906.019165 
	C668.169250,907.722473 666.597229,910.136475 667.827087,914.598511 
	C668.968933,918.741577 669.634949,923.038513 670.220520,927.307495 
	C671.554260,937.031128 667.647461,942.680115 657.524292,946.545166 
	C640.049255,953.217102 621.818787,956.982849 603.617004,960.916626 
	C582.926758,965.388245 561.899536,967.714722 540.872314,968.873474 
	C520.478088,969.997375 499.986115,969.780396 479.499878,968.603210 
	C456.726196,967.294617 434.145477,964.939636 411.860748,960.191101 
	C395.435181,956.691040 379.208771,952.373108 363.615326,945.937805 
	C353.808899,941.890625 349.629211,933.665161 352.476349,924.911072 
	C353.796082,920.853271 353.977509,916.423523 354.656311,912.159424 
	C355.138306,909.131470 354.037842,907.115173 351.111572,905.846130 
	C341.492554,901.674500 331.913177,897.409180 322.367310,893.072510 
	C318.972198,891.530151 317.177826,892.926025 316.527893,896.073181 
	C315.319550,901.924072 314.122589,907.796814 313.371796,913.717590 
	C312.447754,921.004578 308.678101,925.414551 302.791473,925.329468 
	C296.411438,925.237244 291.094666,919.871948 290.677002,913.051392 
	C290.585449,911.556824 290.534729,910.041382 290.672638,908.554749 
	C291.008667,904.932800 289.303802,902.595337 286.325256,900.807312 
	C258.509369,884.110291 233.172394,864.084167 209.246307,842.312317 
	C181.288010,816.871216 157.070175,788.147156 136.008057,756.728394 
	C124.763702,739.954895 114.921791,722.427185 105.957947,703.945923 
M670.336609,318.207611 
	C665.600647,315.116730 660.960388,311.865448 656.108398,308.968964 
	C646.571594,303.275787 645.240967,299.965851 648.688965,289.290802 
	C655.277039,268.894165 662.086853,248.571930 666.213684,227.463730 
	C669.213074,212.122269 671.497192,196.662994 672.424805,181.103241 
	C673.265442,167.003311 673.422791,152.784302 671.533875,138.714355 
	C669.719666,125.200584 665.645813,112.553307 656.934448,101.586349 
	C647.687744,89.945442 632.777771,85.431839 618.959900,90.933838 
	C604.011108,96.886147 594.706848,108.886559 587.342529,122.268890 
	C570.303772,153.231613 564.928162,187.439606 561.489014,221.957870 
	C559.744324,239.468521 559.424805,257.120178 558.411743,274.705231 
	C558.050964,280.969482 555.099304,283.689636 548.793945,283.378143 
	C537.831177,282.836609 526.874634,281.581055 515.919495,281.625336 
	C502.620575,281.679077 489.328613,282.838043 476.028229,283.387848 
	C467.036041,283.759521 464.592712,281.383209 464.677765,272.487549 
	C464.832214,256.334839 464.145721,240.213852 462.818878,224.125000 
	C460.516144,196.203522 455.520355,168.786148 446.300232,142.278275 
	C440.274445,124.954079 432.179138,108.985588 416.999603,97.390594 
	C397.167236,82.241493 376.953430,87.890091 364.709106,106.532433 
	C356.429901,119.137794 353.042419,133.335480 352.447357,148.135529 
	C351.981415,159.724640 351.191193,171.299149 352.088776,182.977844 
	C352.993195,194.745407 353.875244,206.520386 355.707001,218.147202 
	C359.493195,242.179504 366.880646,265.294434 374.925446,288.187347 
	C378.574371,298.570984 376.756378,303.643799 366.961639,308.976959 
	C352.852722,316.659119 339.935303,326.098846 328.225342,336.992096 
	C304.764862,358.816284 286.625122,384.613800 273.811646,413.955780 
	C258.595367,448.800018 251.013779,485.436371 250.413162,523.408813 
	C249.972473,551.270386 251.987335,578.908325 261.334900,605.518677 
	C269.503937,628.773926 281.394836,649.866455 299.229401,667.027893 
	C324.868256,691.699097 355.940033,706.829834 389.783478,716.741089 
	C412.176117,723.299072 435.005402,727.592529 458.224152,729.781250 
	C481.223938,731.949341 504.154999,734.523499 527.396179,732.916870 
	C546.132629,731.621643 564.821045,730.375610 583.435425,727.689697 
	C615.118713,723.118042 645.522034,714.723083 674.056030,699.913025 
	C706.557312,683.044006 730.854614,657.995972 748.457275,626.164001 
	C764.465881,597.214661 767.823120,565.324463 769.545715,533.167053 
	C770.337524,518.385803 768.564270,503.683533 766.921448,488.943359 
	C763.397827,457.327484 754.934326,427.206665 740.546448,398.980255 
	C724.027527,366.573029 700.928284,339.516602 670.336609,318.207611 
M420.021301,748.156189 
	C415.929962,746.711060 411.862244,746.945923 407.790924,748.275391 
	C391.430298,753.617920 377.734283,763.430176 365.396820,774.940063 
	C342.406708,796.387878 324.365814,821.634094 310.467957,849.836243 
	C307.701385,855.450195 307.858215,856.323853 313.241394,859.963562 
	C324.162170,867.347290 335.717804,873.611450 347.670288,879.153503 
	C360.416443,885.063660 360.226685,885.026550 362.788879,871.026123 
	C364.463745,861.873901 366.558807,852.780701 368.900574,843.774231 
	C370.666260,836.983521 377.440948,833.295776 384.100189,834.856445 
	C388.669922,835.927429 392.383606,842.666870 391.089691,848.278687 
	C385.679993,871.740723 381.688538,895.482178 376.868835,919.057800 
	C375.854584,924.019165 376.751312,926.205322 381.662323,927.865173 
	C410.348328,937.560669 440.118805,942.101013 469.977997,945.271790 
	C494.949280,947.923523 520.146301,947.198608 545.276001,945.092529 
	C576.823792,942.448608 607.996338,938.071838 638.304565,928.592529 
	C646.751160,925.950806 646.945190,925.500671 645.155457,916.668640 
	C640.470947,893.551880 635.958801,870.400330 631.295959,847.279114 
	C630.252686,842.106262 632.513611,838.393494 636.473022,835.822876 
	C640.313477,833.329407 644.412720,834.103149 648.191101,836.593567 
	C651.189087,838.569641 652.529175,841.545288 653.294983,844.868774 
	C655.941162,856.352600 658.674561,867.818176 661.142273,879.340515 
	C662.049316,883.575500 664.179688,884.493469 667.947388,883.057068 
	C683.158264,877.258179 696.960876,869.006042 709.999878,859.330383 
	C713.713379,856.574646 713.893250,853.898926 711.984985,849.950623 
	C704.413330,834.283997 695.179199,819.660828 684.622253,805.884277 
	C669.019775,785.523376 651.717529,766.911072 628.851746,754.431213 
	C622.157410,750.777588 615.408813,747.036560 607.378235,747.030151 
	C601.306580,747.025269 596.509827,748.396484 593.936462,754.890076 
	C588.741516,767.999207 579.251099,777.965576 568.013855,785.914612 
	C538.488037,806.800964 506.404053,810.473511 472.849152,797.413025 
	C451.331696,789.037659 434.510040,774.887817 425.124176,753.094543 
	C424.227081,751.011597 422.654297,749.576172 420.021301,748.156189 
M456.963989,753.363403 
	C455.572510,753.523010 453.881439,752.795837 453.061310,754.651733 
	C454.497223,758.218750 454.497681,758.218262 457.097168,760.744385 
	C473.497314,776.681152 493.402618,782.965027 515.865845,781.611084 
	C533.770020,780.531860 549.413513,773.940674 562.082764,760.988647 
	C563.490234,759.549683 566.183472,758.209961 565.169006,755.790955 
	C564.146912,753.353760 561.349609,754.281372 559.305481,754.387573 
	C548.016541,754.974121 536.742981,755.992676 525.448669,756.311035 
	C502.834076,756.948486 480.262573,756.028687 456.963989,753.363403 
M941.786255,546.513550 
	C943.087341,550.314087 947.778076,550.570557 949.528748,553.926697 
	C950.129150,555.077759 950.736572,556.505310 952.382263,556.252991 
	C954.004761,556.004150 954.878174,554.702637 955.450317,553.278442 
	C958.106567,546.668152 953.042480,534.532349 946.607056,531.928772 
	C944.624207,531.126526 942.904968,531.205994 942.135132,533.427063 
	C940.733154,537.471802 938.922363,541.552490 941.786255,546.513550 
z"/>
<path fill="#000000" opacity="1.000000" stroke="none" 
	d="
M391.999695,492.975616 
	C410.786987,493.178162 429.075012,493.333649 447.360962,493.621429 
	C453.799225,493.722748 458.494415,497.237183 459.273895,502.130432 
	C460.148163,507.618622 457.639801,511.817810 451.393799,514.273926 
	C448.480133,515.419739 448.464508,517.509827 448.357483,519.855835 
	C448.019379,527.265137 446.619110,534.369507 442.478027,540.713440 
	C437.418243,548.464844 430.083862,552.587830 421.032043,552.140808 
	C411.459869,551.668152 403.954895,546.867065 399.558533,538.043762 
	C397.016876,532.942749 395.409851,527.599487 395.587006,521.742615 
	C395.757996,516.091492 394.635559,515.090637 388.910217,515.063171 
	C377.253357,515.007202 365.595276,515.126160 353.939148,515.017517 
	C347.515381,514.957642 343.260162,511.578674 342.294220,506.193756 
	C341.438385,501.422668 344.147980,496.667511 348.734528,494.359711 
	C351.132141,493.153320 353.670807,493.460083 356.081482,493.397675 
	C367.883209,493.091949 379.692841,493.089935 391.999695,492.975616 
z"/>
<path fill="#000000" opacity="1.000000" stroke="none" 
	d="
M598.915833,514.390747 
	C590.934387,514.383484 583.440125,514.437683 575.947510,514.351379 
	C569.804871,514.280640 564.859253,509.615143 564.734985,503.963013 
	C564.616028,498.553070 569.851685,493.427368 575.944336,493.397919 
	C594.530762,493.308075 613.119873,493.528412 631.704224,493.309845 
	C644.655701,493.157501 657.597046,493.089447 670.539551,493.603271 
	C677.521851,493.880463 681.966980,497.517090 682.334045,503.284546 
	C682.793457,510.502655 678.841187,514.903198 671.539734,515.303101 
	C663.499084,515.743530 663.338867,515.727417 662.517273,523.884033 
	C662.044006,528.582581 661.092712,533.115784 659.005554,537.292297 
	C654.040833,547.227234 643.384460,553.350952 633.983643,551.934937 
	C622.535522,550.210632 614.970093,542.669434 612.740173,530.594543 
	C612.200195,527.670349 611.568237,524.767334 611.593750,521.723145 
	C611.646545,515.433777 610.642944,514.533752 604.399475,514.392578 
	C602.735046,514.354980 601.069031,514.389893 598.915833,514.390747 
z"/>
<path fill="#000000" opacity="1.000000" stroke="none" 
	d="
M549.875000,603.871399 
	C554.410889,600.231384 556.963379,595.495361 559.796021,591.002014 
	C563.414978,585.261292 568.354004,583.245239 573.581787,585.605530 
	C579.166260,588.126770 581.661621,593.444336 579.818542,599.685547 
	C577.183228,608.609985 571.675781,615.703186 564.515625,621.386597 
	C537.627136,642.729309 497.980255,646.449524 468.010864,624.515808 
	C461.885620,620.032898 456.764771,614.611877 454.446014,607.102722 
	C452.837585,601.893860 454.352173,597.424438 458.496704,594.933350 
	C462.449341,592.557617 467.416351,593.470520 471.038361,597.566528 
	C479.001221,606.571411 488.751129,612.943237 500.401794,615.455811 
	C518.389893,619.334961 535.093628,616.073120 549.875000,603.871399 
z"/>
<path fill="#000000" opacity="1.000000" stroke="none" 
	d="
M618.227539,394.365784 
	C628.998474,396.400208 637.935425,400.775940 644.024109,409.695221 
	C648.526855,416.291260 646.198181,423.574066 639.151062,425.835754 
	C635.822510,426.904022 632.694580,426.437592 630.452698,423.817535 
	C620.404419,412.074341 607.891113,412.890686 594.775330,416.549011 
	C588.331360,418.346405 584.502319,416.609589 582.383850,410.932404 
	C581.003296,407.232483 581.876343,404.161011 584.457214,401.304138 
	C588.874573,396.414246 594.703674,394.502838 600.903625,393.875397 
	C606.508423,393.308228 612.194763,393.251526 618.227539,394.365784 
z"/>
<path fill="#000000" opacity="1.000000" stroke="none" 
	d="
M426.565002,415.936340 
	C414.349487,411.041840 404.145111,413.731140 395.098328,422.318665 
	C392.319122,424.956818 389.342194,427.281403 384.955902,426.491028 
	C378.889069,425.397858 375.391663,419.670837 377.471161,413.877045 
	C379.226837,408.985474 382.628021,405.194641 386.633728,402.309509 
	C399.611206,392.962524 413.974548,391.026123 429.168213,395.759888 
	C433.386414,397.074158 437.305298,399.655731 438.726715,403.935822 
	C441.839996,413.310638 434.820221,417.944672 426.565002,415.936340 
z"/>
<path fill="#000000" opacity="1.000000" stroke="none" 
	d="
M503.894440,568.507812 
	C498.314301,565.965149 494.588776,562.300781 494.847717,556.218750 
	C495.066132,551.088684 500.168732,546.635010 506.902710,545.161377 
	C513.231140,543.776489 519.165100,544.834106 524.409912,548.746460 
	C531.065552,553.711243 530.673828,562.023926 523.722900,566.583679 
	C517.563904,570.623901 511.119385,571.432617 503.894440,568.507812 
z"/>
</svg>