<svg version="1.1" id="Layer_1" xmlns="http://www.w3.org/2000/svg" xmlns:xlink="http://www.w3.org/1999/xlink" x="0px" y="0px"
	 width="100%" viewBox="0 0 1024 1024" enable-background="new 0 0 1024 1024" xml:space="preserve">
<path fill="#000000" opacity="1.000000" stroke="none" 
	d="
M378.909485,952.343140 
	C372.544403,950.756653 366.560120,949.342957 361.074463,946.379272 
	C351.618530,941.270569 348.196747,933.877808 350.851013,923.566772 
	C353.707153,912.471436 353.945374,914.739868 344.479553,910.883362 
	C333.240936,906.304443 321.953796,901.873901 310.772064,894.989807 
	C309.191498,902.266418 307.567352,908.951477 306.315399,915.705505 
	C304.713196,924.349182 299.944489,927.890625 291.553497,926.181702 
	C287.182709,925.291565 284.309967,922.638611 283.800659,918.178894 
	C283.425293,914.891602 282.898468,911.232727 283.931641,908.257751 
	C285.839142,902.765503 283.740143,900.544556 279.155975,897.899536 
	C241.188828,875.992676 208.517761,847.677795 178.918869,815.454468 
	C163.768753,798.961121 149.567581,781.831970 137.182709,763.228638 
	C117.939980,734.324158 101.554047,703.934204 89.671883,671.180542 
	C82.007706,650.053955 75.694679,628.562622 71.330421,606.549255 
	C67.426285,586.856750 64.402374,567.001709 63.778481,546.870728 
	C63.748478,545.902771 63.907650,544.928955 64.034889,543.190552 
	C67.381813,548.340332 69.629555,553.158203 71.181816,558.339294 
	C71.751968,560.242310 72.486015,562.137695 73.435570,563.878113 
	C76.764870,569.980286 81.464378,571.393250 88.032997,569.086426 
	C96.153954,566.234253 100.953789,560.801086 104.431442,552.883850 
	C110.613892,538.808899 112.654419,524.095642 113.026138,509.077576 
	C113.507828,489.616364 118.271400,470.846100 121.293304,451.791046 
	C122.884460,441.757874 124.824257,431.726196 125.530502,421.618652 
	C126.701576,404.858673 122.198097,389.147736 113.441803,374.972595 
	C107.777191,365.802399 96.305420,367.054474 87.845940,375.999146 
	C86.158295,377.783600 84.889725,379.964661 82.491982,381.668335 
	C81.803406,378.357269 83.002823,375.537231 83.900246,372.902344 
	C89.098770,357.639160 94.655029,342.540771 101.286339,327.784271 
	C112.387016,303.082214 125.907196,279.866913 141.346649,257.694489 
	C151.052765,243.755630 161.772827,230.640533 172.855865,217.772766 
	C192.834183,194.577271 215.818085,174.675766 239.911148,156.016846 
	C267.594238,134.577621 298.276642,118.273911 330.449860,104.702820 
	C334.003265,103.203949 336.274445,101.332611 338.076843,97.650124 
	C346.328094,80.791885 358.786743,68.322540 377.397522,63.259632 
	C392.893280,59.044147 408.261230,59.505394 422.104248,68.239944 
	C429.408752,72.848885 436.288605,73.839340 444.571106,72.356270 
	C467.342865,68.278725 490.367462,66.094521 513.511597,66.830925 
	C534.381836,67.494987 555.305115,67.953903 575.976013,71.537064 
	C579.074097,72.074097 582.270874,72.077148 585.346313,72.700592 
	C589.338074,73.509781 592.804993,72.763855 596.299011,70.691360 
	C602.891052,66.781242 609.674744,62.931095 617.325867,61.774170 
	C632.921204,59.416012 647.683960,62.143745 661.362122,70.259491 
	C672.121460,76.643341 678.723877,86.546242 684.211609,97.305519 
	C685.599915,100.027428 687.196594,101.728577 690.051025,102.854362 
	C721.140381,115.115936 750.708679,130.257339 777.876160,149.851715 
	C792.194275,160.178574 805.642151,171.552734 818.831482,183.294724 
	C838.683838,200.968521 856.397339,220.542343 872.441467,241.658524 
	C892.752991,268.391266 910.037537,296.891052 923.749634,327.640106 
	C937.087708,357.550659 946.793884,388.526215 953.557983,420.482819 
	C956.787842,435.742279 958.945801,451.178467 960.391174,466.714630 
	C961.835754,482.241852 963.640320,497.775909 963.223999,513.379272 
	C962.060730,556.974731 957.818970,600.253601 944.994080,642.124634 
	C932.026245,684.462280 913.880676,724.484863 889.271912,761.547302 
	C871.024658,789.028931 849.953369,814.052917 826.322388,836.893799 
	C801.945923,860.455200 775.328491,881.211060 745.498047,897.600403 
	C744.333557,898.240112 743.307007,899.185974 742.088440,899.662659 
	C736.331299,901.915161 734.665405,905.322754 736.864868,911.564087 
	C738.845642,917.184692 734.632324,923.840637 729.578491,925.170776 
	C722.068970,927.147095 716.515686,924.315552 714.424927,917.116455 
	C712.944824,912.020142 711.856018,906.809143 710.637207,901.638794 
	C710.213562,899.841858 709.704834,898.122131 708.276917,896.651978 
	C704.864990,897.332397 702.272278,899.532532 699.336487,900.978638 
	C690.817261,905.175110 682.156067,909.028931 673.031128,911.719238 
	C668.739563,912.984497 666.665894,914.932373 668.228271,919.940979 
	C669.637817,924.459351 671.018921,929.141357 669.974304,934.124573 
	C667.733032,944.815613 659.013184,947.924011 650.335999,950.236023 
	C634.792725,954.377625 619.109619,958.095581 603.335693,961.242310 
	C587.554199,964.390564 571.551575,966.173401 555.486145,967.568970 
	C538.086792,969.080444 520.699524,970.291138 503.244659,969.942322 
	C483.800049,969.553772 464.457367,967.940857 445.110291,965.706055 
	C422.749786,963.123169 400.968658,958.212646 378.909485,952.343140 
M440.392914,126.045815 
	C433.231995,112.161819 425.133209,99.103996 411.232483,90.728088 
	C393.649506,80.133430 373.368805,85.095001 362.758087,102.557823 
	C354.228058,116.596237 350.789612,132.270142 349.568329,148.154816 
	C346.943329,182.296555 351.823029,215.791489 360.682037,248.784744 
	C364.523163,263.089966 368.949707,277.179199 374.069214,291.077332 
	C376.905029,298.775757 375.471619,302.592926 368.737518,307.352356 
	C366.298340,309.076324 363.664825,310.538483 361.057434,312.009247 
	C337.685608,325.192383 317.716553,342.186951 301.886597,364.003479 
	C289.694916,380.805817 280.061432,398.935455 271.791443,417.940094 
	C257.056702,451.800934 250.409058,487.452576 248.899139,523.993652 
	C247.959076,546.743774 250.998444,569.394348 256.397278,591.629944 
	C263.264374,619.912720 275.132904,645.642334 294.985138,667.251953 
	C317.182739,691.414490 344.971741,706.768188 375.622253,717.229309 
	C412.071136,729.669373 449.902130,734.890137 488.174286,736.487061 
	C511.085938,737.443054 534.066284,736.990417 556.978577,734.768860 
	C581.511292,732.390259 605.705078,728.408813 629.377869,721.469788 
	C651.362366,715.025574 672.439697,706.504028 691.706909,693.930359 
	C715.899780,678.142334 735.254150,657.898438 747.967407,631.756226 
	C759.215088,608.627747 764.902649,583.903137 767.881104,558.525452 
	C769.842957,541.810181 770.245667,525.023926 768.655762,508.218140 
	C767.263550,493.502533 766.002808,478.768494 763.031555,464.266052 
	C757.923889,439.335510 748.968506,415.899750 737.010498,393.372223 
	C724.729797,370.236725 709.012817,350.118561 689.329529,332.999207 
	C678.255554,323.367767 666.328857,314.909821 653.845520,307.174530 
	C646.777649,302.794922 645.035278,296.778778 647.901306,289.148041 
	C651.703369,279.025055 655.185547,268.804260 658.169434,258.405579 
	C667.519531,225.820190 673.666138,192.809677 673.027527,158.695160 
	C672.651367,138.599274 669.937927,119.134857 659.434387,101.670097 
	C653.289978,91.453468 644.152039,85.389351 631.557800,85.166794 
	C616.236450,84.896034 605.140442,93.073212 595.970093,103.625397 
	C586.013733,115.081993 578.860413,128.526978 573.311523,142.772568 
	C561.985229,171.849716 560.014526,202.529999 557.291626,233.121628 
	C556.152161,245.922607 556.529297,258.726379 556.219727,271.529999 
	C555.979614,281.460968 551.222534,285.305389 541.388672,284.037354 
	C535.958801,283.337128 530.586609,282.329803 525.049988,282.370453 
	C509.417145,282.485321 493.793915,282.110779 478.214264,284.196869 
	C469.911407,285.308563 465.763336,281.128571 465.651703,272.743683 
	C465.541077,264.433380 465.531921,256.154510 464.884613,247.822662 
	C463.112274,225.009781 461.763245,202.213577 457.941071,179.568909 
	C454.803528,160.980438 449.031921,143.492508 440.392914,126.045815 
M624.776306,932.017029 
	C629.776062,930.803406 634.809326,929.711304 639.767639,928.347229 
	C646.902222,926.384399 646.800903,926.317261 645.183655,919.043823 
	C640.101868,896.189697 635.085693,873.320984 630.040039,850.458801 
	C629.443420,847.755493 629.579712,845.201355 631.176819,842.795837 
	C633.911926,838.676392 637.830444,836.509216 642.613281,837.126648 
	C647.924927,837.812256 651.911072,840.755127 653.168152,846.348267 
	C656.403809,860.744629 659.572693,875.155945 662.849060,889.925354 
	C681.033630,884.876831 697.239136,876.240417 712.669739,865.949219 
	C715.169434,864.281982 714.587036,862.453247 713.364075,860.408691 
	C703.290527,843.567871 693.980347,826.305725 681.933105,810.639771 
	C666.045898,789.980591 648.079834,771.811279 625.973755,757.783936 
	C617.847961,752.627808 610.182373,748.488525 600.093994,752.604858 
	C596.620239,754.022278 594.066101,755.110413 592.453979,758.689758 
	C586.196167,772.583740 576.610718,783.652039 563.337708,791.302856 
	C544.973938,801.888000 525.176025,806.563660 503.997284,805.398132 
	C470.946808,803.579224 443.277863,792.139221 426.984039,761.327698 
	C423.826630,755.356995 420.337036,751.818481 413.371155,751.164734 
	C409.587860,750.809692 406.484131,750.655579 402.966125,752.514771 
	C388.074036,760.385071 375.492676,771.214661 363.438263,782.727661 
	C340.274841,804.850769 323.253326,831.393677 308.433319,859.515991 
	C306.741272,862.726807 307.389740,864.678894 310.445526,866.435669 
	C317.803894,870.665771 324.863983,875.463196 332.422943,879.282654 
	C340.511230,883.369629 348.870361,887.040405 358.036072,889.311157 
	C358.652435,886.619324 359.181427,884.384460 359.674774,882.141785 
	C362.315125,870.138794 364.733612,858.081604 367.663849,846.149963 
	C369.329529,839.367554 375.243469,836.349731 381.975800,838.048279 
	C387.851807,839.530762 391.092743,845.051636 389.870667,851.589050 
	C389.108765,855.664795 388.313049,859.735352 387.458649,863.792664 
	C383.490509,882.637085 379.482025,901.473083 375.524078,920.319641 
	C374.729218,924.104492 375.233551,926.697876 379.866333,928.115662 
	C398.975281,933.963440 418.429932,937.999512 438.168549,941.006836 
	C457.900146,944.013184 477.727661,945.771912 497.637848,946.597656 
	C517.616577,947.426270 537.501221,945.753662 557.384216,943.869446 
	C579.906555,941.734924 602.143311,938.148621 624.776306,932.017029 
M492.497742,759.411377 
	C479.301727,760.502075 466.123840,756.716736 452.208191,758.132751 
	C463.235321,775.601990 492.225800,785.872070 516.285950,783.316956 
	C535.320679,781.295532 553.003967,775.646057 564.805359,758.647644 
	C540.895142,759.671204 517.200256,759.969727 492.497742,759.411377 
z"/>
<path fill="#000000" opacity="1.000000" stroke="none" 
	d="
M492.405792,695.964417 
	C471.523529,689.258545 461.277283,673.850647 457.278809,653.912720 
	C455.355194,644.320801 456.131744,634.287598 457.984192,624.614197 
	C458.733704,620.700378 457.289337,619.053833 454.320129,617.603943 
	C450.583160,615.779175 446.709808,614.160278 443.193451,611.973206 
	C436.821533,608.010193 434.286072,601.891541 436.287506,596.421814 
	C438.879028,589.339294 446.650757,587.040039 454.779999,591.323853 
	C461.719360,594.980774 468.728516,598.380554 476.258179,600.645081 
	C506.758759,609.818054 536.287598,607.913513 564.733765,593.043396 
	C569.036926,590.793884 573.459351,589.075989 578.574158,590.721008 
	C586.949463,593.414551 589.506348,603.214539 583.195129,609.432007 
	C579.485352,613.086670 575.064026,615.825745 570.215515,617.687073 
	C566.949463,618.940918 566.488464,620.827698 566.675293,624.208130 
	C567.753845,643.723572 566.557129,662.982056 554.111145,679.277222 
	C545.582397,690.443726 533.743225,696.305176 519.761414,698.502991 
	C510.414764,699.972229 501.632233,698.465759 492.405792,695.964417 
M495.484924,672.117126 
	C513.695557,680.955200 532.601990,674.439575 540.045044,656.521912 
	C543.626404,647.900452 543.855774,638.694763 543.630676,629.495300 
	C543.562988,626.724426 542.001770,626.224121 539.594543,626.649170 
	C535.838318,627.312317 532.069702,628.145569 528.280334,628.310913 
	C524.667480,628.468628 523.227417,629.866943 523.202698,633.444580 
	C523.172913,637.750732 523.658630,642.100464 522.385864,646.354126 
	C520.832825,651.544617 517.364380,654.522095 512.083618,655.184265 
	C507.384979,655.773438 503.540344,654.054626 501.054321,649.913330 
	C499.141724,646.727295 499.531433,643.132324 499.771149,639.661499 
	C500.403259,630.508850 500.460114,630.520935 491.737213,629.132385 
	C490.756165,628.976257 489.809143,628.614624 488.830597,628.433044 
	C481.787567,627.125488 480.519440,628.136536 480.328247,635.163086 
	C480.305603,635.995422 480.373810,636.843933 480.236816,637.657471 
	C477.794495,652.162476 483.322723,663.233093 495.484924,672.117126 
z"/>
<path fill="#000000" opacity="1.000000" stroke="none" 
	d="
M581.169922,510.337494 
	C590.511597,494.215149 604.593201,485.097351 622.432861,485.057678 
	C647.614929,485.001617 663.908447,504.418457 669.104187,523.913635 
	C670.479553,529.073975 666.211487,535.501526 660.937500,537.275452 
	C654.353638,539.489929 646.394165,536.355286 643.670654,530.052429 
	C640.219666,522.065857 635.197388,515.814819 626.764160,512.813782 
	C617.328247,509.456024 607.978027,513.260742 603.239807,522.280823 
	C601.930664,524.773010 600.525330,527.243408 598.894897,529.532043 
	C595.302063,534.575195 590.081604,536.261292 584.560974,534.396484 
	C580.048889,532.872375 577.956604,529.011902 577.579407,522.952026 
	C577.293152,518.353638 578.973694,514.514893 581.169922,510.337494 
z"/>
<path fill="#000000" opacity="1.000000" stroke="none" 
	d="
M353.659973,527.179688 
	C351.401855,521.156799 352.089294,515.995056 355.689117,510.932129 
	C369.110718,492.055450 394.734955,481.026886 418.093292,489.470612 
	C432.143005,494.549377 441.082184,505.017792 445.838654,518.884583 
	C448.217682,525.820374 444.590363,532.510132 438.365814,534.705872 
	C432.128967,536.905945 425.665131,533.987793 422.611481,526.923279 
	C418.380676,517.135559 411.348053,511.532288 400.603760,512.406311 
	C392.162903,513.093018 385.047791,516.973999 380.600616,524.708557 
	C378.177551,528.922729 375.614105,532.982971 370.416290,534.334473 
	C363.133423,536.228210 357.824127,533.495117 353.659973,527.179688 
z"/>
<path fill="#000000" opacity="1.000000" stroke="none" 
	d="
M524.777954,547.403442 
	C529.893921,555.410461 527.645020,562.470825 519.196350,565.583984 
	C513.189270,567.797424 507.172119,567.567688 501.193420,565.182983 
	C496.330322,563.243225 493.813690,559.916260 493.773102,554.552612 
	C493.731598,549.062744 496.635376,545.494080 501.365692,544.020264 
	C509.393646,541.519104 517.436523,541.317078 524.777954,547.403442 
z"/>
</svg>