<svg version="1.1" id="Layer_1" xmlns="http://www.w3.org/2000/svg" xmlns:xlink="http://www.w3.org/1999/xlink" x="0px" y="0px"
	 width="100%" viewBox="0 0 1024 1024" enable-background="new 0 0 1024 1024" xml:space="preserve">
<path fill="#000000" opacity="1.000000" stroke="none" 
	d="
M280.714661,929.975342 
	C277.593994,918.711731 277.807831,907.692566 280.654602,896.993652 
	C282.080963,891.633057 280.163513,889.399536 276.200592,887.135315 
	C260.252716,878.023193 245.353027,867.396423 231.195572,855.712219 
	C209.175064,837.538757 188.967636,817.558777 170.771088,795.532776 
	C147.852936,767.791382 128.509872,737.763123 112.893951,705.360535 
	C97.879768,674.206543 86.776672,641.704041 79.686424,607.828857 
	C72.465553,573.329590 68.931747,538.489380 69.872284,503.245392 
	C70.123833,493.819183 70.674126,484.374878 72.693466,475.050659 
	C74.901253,484.171936 73.948196,493.392059 73.622147,502.628784 
	C73.187080,514.953430 72.623032,527.439880 80.690475,538.070496 
	C84.930489,543.657654 90.509888,547.969116 95.568504,552.756653 
	C97.905350,554.968201 100.436081,554.363220 102.101082,551.282043 
	C103.697365,548.327820 104.736191,545.183044 105.810104,542.022705 
	C107.517532,536.997864 110.295776,533.458313 116.339188,532.924072 
	C122.112404,532.413818 125.220390,528.532959 127.611824,523.085938 
	C132.047455,512.982849 133.327606,502.263397 135.275070,491.668671 
	C137.056381,481.977722 135.875137,472.077667 136.666916,462.265625 
	C137.817627,448.005402 138.495483,433.698456 139.895981,419.452454 
	C140.553391,412.765167 138.652634,406.975616 134.698868,401.687225 
	C132.686783,398.995972 129.932236,397.811279 126.828743,398.492462 
	C123.590332,399.203217 121.317604,398.223511 119.321991,395.892731 
	C116.076111,392.101685 112.515785,391.895508 107.701416,393.387482 
	C93.431114,397.809937 88.701088,410.083038 83.231323,421.792511 
	C82.059013,424.302094 81.224632,426.951141 79.197517,429.038025 
	C92.821465,358.560089 122.133423,295.190857 167.496552,239.635086 
	C231.712555,160.990402 313.501556,110.204102 412.645111,87.687889 
	C414.347839,90.392387 412.711609,92.352608 411.947845,94.162659 
	C399.392365,123.918137 388.979218,154.501236 376.966919,184.464218 
	C374.343719,191.007324 375.105438,196.368912 380.637543,201.530548 
	C389.183838,209.504486 395.479126,219.403046 401.959229,229.083389 
	C403.074768,230.749863 403.612213,233.704636 406.437256,233.021225 
	C409.641815,232.246033 414.092499,232.806030 415.024323,228.355408 
	C417.226776,217.836060 424.268829,216.369965 433.622711,216.638977 
	C452.436218,217.180054 471.276703,216.886658 490.104767,216.754715 
	C495.565155,216.716446 498.823914,218.936310 500.455750,224.158142 
	C502.489441,230.665924 505.000366,237.024628 507.031647,243.533096 
	C508.617523,248.614365 511.941833,250.727768 517.077087,250.633759 
	C522.241455,250.539230 527.411011,250.475327 532.573120,250.604874 
	C535.341309,250.674347 536.771118,249.459854 537.837952,247.015488 
	C542.028931,237.412720 545.138489,227.328613 550.584961,218.280853 
	C551.801208,216.260315 550.611328,214.426163 549.920471,212.585403 
	C537.812622,180.323608 525.683594,148.069794 513.598816,115.799393 
	C509.689789,105.361046 505.880310,94.885300 502.064697,84.412300 
	C501.565887,83.043152 501.302887,81.588089 500.695282,79.278053 
	C530.559509,77.160751 559.636963,80.875145 589.099609,84.202820 
	C590.447449,79.008720 589.669617,74.038399 589.664185,69.146294 
	C589.646667,53.385277 590.367004,52.628166 606.279236,52.703934 
	C615.274536,52.746773 624.270630,52.668236 633.265442,52.748470 
	C640.194092,52.810268 642.903809,55.616104 642.890808,62.486252 
	C642.873230,71.751472 643.337524,81.013260 642.687195,90.284355 
	C642.382202,94.633530 645.163025,96.693565 649.173279,97.830574 
	C666.646362,102.784576 683.608093,109.141960 700.294678,116.327278 
	C728.452637,128.452240 754.324646,144.413712 778.930786,162.528870 
	C811.589905,186.572662 840.260620,214.748245 865.116455,246.765213 
	C907.846924,301.806519 934.984314,363.994873 948.904236,432.030701 
	C952.291687,448.587585 954.472351,465.398621 955.500549,482.352966 
	C956.275574,495.131317 957.588257,507.923431 957.212769,520.693176 
	C955.782715,569.327515 948.075378,616.863525 931.751404,662.900818 
	C914.248840,712.261902 888.756897,757.044006 855.054016,797.015991 
	C814.704224,844.871216 766.730774,883.165894 709.999390,910.124268 
	C703.781006,913.079163 703.501099,914.012695 704.784363,921.050232 
	C706.361755,929.701111 708.547852,938.269897 708.371826,947.179443 
	C708.227600,954.482666 704.845276,959.001282 699.156128,959.132996 
	C693.322083,959.268066 688.256287,954.569275 687.760132,948.086487 
	C686.408203,930.423035 682.357788,913.296631 677.773743,896.266479 
	C677.386414,894.827332 676.794800,893.444336 676.375366,892.012573 
	C675.188599,887.960815 673.032349,887.817993 669.697510,889.896118 
	C662.913147,894.123779 655.894714,898.001648 648.305908,900.587524 
	C644.893616,901.750183 644.268250,903.261841 644.900330,906.838013 
	C647.209351,919.902039 650.416565,932.845276 651.321960,946.117737 
	C651.857483,953.967651 649.719116,956.804749 642.098083,959.360474 
	C629.290710,963.655396 615.961426,965.768982 602.702515,967.945923 
	C583.351624,971.123230 563.877014,973.409424 544.267761,974.495483 
	C521.307068,975.767151 498.324432,975.933411 475.437164,974.071960 
	C454.760956,972.390259 434.069275,970.244080 413.771423,965.575867 
	C410.304504,964.778503 407.858582,965.048584 405.389587,968.418335 
	C400.607727,974.944885 392.376068,973.365784 389.196747,965.853271 
	C387.651550,962.202271 387.851868,958.355225 387.439331,954.571228 
	C386.176025,942.983276 379.535187,934.328796 371.980957,926.172607 
	C369.943451,923.972778 367.799622,921.868591 365.818848,919.619873 
	C363.894287,917.434875 362.195648,914.703064 363.053528,911.921692 
	C364.340607,907.748779 362.323792,906.264954 359.129181,904.739075 
	C344.052063,897.537720 329.820282,888.957275 316.816376,878.403809 
	C314.538330,876.555054 311.942413,874.728760 309.698730,878.380310 
	C301.128021,892.328857 295.123108,906.961731 299.429474,923.760925 
	C302.593536,936.104004 311.734100,944.021790 321.104736,951.648193 
	C322.523926,952.803162 324.141693,953.715698 325.549072,954.883240 
	C330.630554,959.098755 331.595856,965.369873 328.021301,970.480896 
	C325.383484,974.252625 319.256622,974.975403 314.025208,971.445618 
	C298.796204,961.169922 286.246643,948.614807 280.714661,929.975342 
M411.575958,303.760773 
	C405.016937,282.341339 396.596680,261.719757 384.289337,242.917694 
	C375.192383,229.020111 364.647675,216.370529 349.652893,208.326553 
	C334.461914,200.177338 318.900421,204.719269 310.077454,219.420761 
	C304.657379,228.452072 302.904510,238.410019 302.438904,248.566193 
	C301.440002,270.354919 306.787018,291.066223 314.031952,311.401520 
	C323.475311,337.907471 336.555237,362.529968 351.979553,386.000824 
	C357.188080,393.926514 356.251099,397.546936 348.610565,403.154480 
	C334.116821,413.791779 321.704193,426.529510 311.192535,441.043671 
	C291.129059,468.746643 279.020447,499.734192 273.001587,533.354858 
	C267.555023,563.778687 266.547394,594.097778 272.337463,624.564575 
	C280.786255,669.020874 303.960266,703.208313 343.393738,725.718506 
	C384.815338,749.363586 430.370605,758.079651 477.278870,760.452576 
	C500.192352,761.611572 523.228821,761.415344 546.121948,758.658203 
	C563.936096,756.512817 581.740967,754.249695 599.191895,749.983215 
	C614.578186,746.221558 629.463318,740.853516 643.807190,734.161377 
	C670.545654,721.686584 693.580688,704.664001 709.834534,679.447021 
	C728.109314,651.094299 734.641907,619.424377 735.529175,586.398926 
	C736.361816,555.406433 731.685791,525.095825 721.701965,495.656403 
	C704.305603,444.359222 674.995117,402.831238 625.481506,377.743835 
	C619.447144,374.686401 618.129700,371.191345 620.169067,364.614319 
	C620.758728,362.712463 621.551697,360.860168 622.396667,359.053040 
	C629.395081,344.084930 634.691040,328.535370 638.843567,312.545868 
	C644.468506,290.886902 648.347107,269.005707 647.591675,246.546143 
	C647.152832,233.498825 645.160950,220.751938 638.493347,209.121918 
	C629.306396,193.097687 611.147095,188.012589 595.161011,197.278442 
	C581.704834,205.077911 573.594666,217.460709 567.461304,231.139801 
	C554.294617,260.505219 549.727478,291.903961 546.230347,323.554321 
	C545.150513,333.327026 545.592529,343.152100 544.379333,352.899414 
	C543.815735,357.427612 541.401489,359.854187 537.035889,360.276184 
	C534.563843,360.515137 532.000000,360.561371 529.554504,360.188904 
	C517.118774,358.294769 504.618561,358.955841 492.153381,359.271881 
	C473.463501,359.745697 455.096375,362.657776 437.046295,367.590881 
	C431.055573,369.228149 427.342499,366.994537 425.761658,361.124420 
	C425.287506,359.363831 424.998688,357.553619 424.615662,355.768127 
	C420.920715,338.544159 417.376984,321.282104 411.575958,303.760773 
M373.301880,793.827698 
	C353.670074,808.085632 338.367035,826.516907 323.354004,845.276245 
	C320.324554,849.061584 320.380920,851.708679 323.609833,855.108887 
	C340.949860,873.369385 361.921051,885.835022 385.450043,894.301819 
	C387.476715,895.031128 389.006500,894.552734 390.184235,892.760620 
	C391.281158,891.091492 392.464539,889.478333 393.537811,887.794617 
	C400.071533,877.544189 406.530487,867.231323 414.120697,857.719482 
	C417.644775,853.303040 422.498230,852.560425 426.516876,855.193420 
	C430.507111,857.807861 432.043213,863.383789 429.829315,868.075623 
	C428.844208,870.163330 427.442352,872.068787 426.117828,873.979431 
	C420.047607,882.735718 413.928406,891.458069 407.850555,900.209167 
	C406.712738,901.847351 405.613434,903.508667 405.401337,905.602112 
	C404.497375,914.524170 403.421051,923.431213 402.673157,932.365906 
	C402.157257,938.529297 406.024109,943.404358 412.166382,944.909607 
	C419.593781,946.729858 427.178284,947.671570 434.700104,948.976562 
	C458.989380,953.190735 483.498169,954.937256 508.083038,955.545410 
	C526.367004,955.997803 544.587280,954.627258 562.808228,952.820984 
	C584.010986,950.719055 604.947388,947.332764 625.708862,942.645569 
	C630.089294,941.656555 631.280029,939.213440 630.529419,935.038757 
	C626.267151,911.333313 621.706970,887.706543 615.189392,864.479492 
	C613.492432,858.431885 610.707336,852.614563 610.424316,846.205505 
	C610.232483,841.860718 611.722900,838.419739 616.083740,836.676392 
	C620.391113,834.954346 623.909302,836.274536 626.875488,839.444519 
	C629.211182,841.940491 630.286499,845.147400 631.199646,848.356567 
	C633.926392,857.940002 636.728149,867.500122 638.604004,877.310181 
	C639.600403,882.521057 640.897949,883.167419 645.840393,881.247192 
	C656.640137,877.051453 666.449585,871.210022 675.266907,863.629456 
	C678.564941,860.794006 678.897278,858.382019 676.515747,854.695435 
	C663.462769,834.488708 648.895508,815.475525 631.907104,798.437622 
	C621.887451,788.388916 610.957153,779.374695 597.583557,773.932678 
	C591.196289,771.333557 586.877686,773.009705 583.606628,778.949768 
	C581.924805,782.003784 580.236328,785.108887 578.121826,787.861328 
	C561.631042,809.327637 539.835327,819.850769 512.717468,820.500305 
	C477.438232,821.345337 449.858551,807.278259 429.233154,779.079407 
	C425.759125,774.329712 421.360413,773.140869 416.221008,774.077881 
	C400.509918,776.942078 386.750763,784.237854 373.301880,793.827698 
M501.499268,782.307861 
	C488.572418,782.307861 475.645569,782.307861 462.402435,782.307861 
	C463.274567,785.905029 466.040039,787.113892 468.239716,788.678711 
	C483.101868,799.251709 500.049347,801.800964 517.648804,800.440674 
	C529.723816,799.507385 541.166260,795.930664 550.541687,787.679260 
	C552.679749,785.797485 556.683838,783.956055 555.337952,780.858093 
	C553.880920,777.504272 549.649841,779.212158 546.765686,779.563782 
	C532.056519,781.356812 517.303833,782.179016 501.499268,782.307861 
M618.127136,161.641174 
	C616.397644,163.776733 611.990845,163.861389 613.014709,168.086685 
	C614.109253,172.603943 617.682312,173.465652 621.672424,173.890152 
	C624.806885,174.223648 627.900024,174.906403 630.859863,176.134995 
	C637.084717,178.718811 641.318542,176.088409 641.657898,169.380325 
	C641.842957,165.721893 641.786560,162.049194 641.772278,158.383209 
	C641.751465,153.052002 641.811768,147.714264 641.556458,142.392792 
	C641.425171,139.657135 641.371460,136.360291 638.037964,135.397995 
	C634.857544,134.479858 632.733521,136.631897 631.000244,139.042480 
	C629.032959,141.778427 627.772034,144.745560 627.039185,148.101913 
	C625.882935,153.397141 623.554810,158.164673 618.127136,161.641174 
z"/>
<path fill="#000000" opacity="1.000000" stroke="none" 
	d="
M482.567352,169.571106 
	C484.902100,176.882294 484.101990,178.068481 476.656250,178.135284 
	C464.854614,178.241165 453.051361,178.263901 441.249420,178.201096 
	C434.469940,178.165024 433.250732,176.495880 435.478546,169.992767 
	C442.147369,150.525894 448.948334,131.104263 455.710541,111.669426 
	C456.304016,109.963707 456.713135,107.729759 458.858826,107.624680 
	C461.437439,107.498398 461.739502,110.124214 462.356354,111.855034 
	C467.372681,125.930450 472.260712,140.051605 477.187775,154.158813 
	C478.938385,159.171188 480.688965,164.183594 482.567352,169.571106 
z"/>
<path fill="#000000" opacity="1.000000" stroke="none" 
	d="
M452.902893,53.165657 
	C455.561737,56.866776 453.191681,59.445148 450.829529,61.219444 
	C445.019165,65.583900 438.630463,69.196899 433.926971,74.924911 
	C433.826782,75.046959 433.663391,75.143936 433.510437,75.191971 
	C427.575653,77.056183 421.760956,79.174187 417.168640,83.899757 
	C416.770538,83.547295 416.372437,83.194824 415.974335,82.842361 
	C417.506012,77.964302 418.932404,73.050179 420.588959,68.214912 
	C425.652649,53.434933 426.624268,52.742138 442.088531,52.683300 
	C445.570282,52.670052 449.053009,52.921917 452.902893,53.165657 
z"/>
<path fill="#000000" opacity="1.000000" stroke="none" 
	d="
M432.580688,561.634155 
	C447.286041,560.996521 461.540039,560.295654 475.800018,559.751709 
	C484.941071,559.403015 489.293549,562.704407 489.413300,569.738892 
	C489.515747,575.757629 486.593384,578.949158 480.496399,579.339111 
	C474.202637,579.741760 467.905609,580.107971 461.605713,580.395752 
	C457.220154,580.596130 454.433228,581.514099 453.952850,587.092957 
	C453.177399,596.098633 451.033783,604.840759 441.692627,609.574524 
	C430.397400,615.298584 419.093781,612.742615 411.781281,602.466431 
	C408.454010,597.790649 406.408173,592.503113 405.005524,587.026184 
	C404.323273,584.361938 402.983734,583.491089 400.518555,583.478210 
	C397.349609,583.461670 394.198883,583.254944 391.231110,581.960449 
	C386.447113,579.873718 383.909943,575.321289 384.760010,570.272400 
	C385.627228,565.121826 389.304260,563.816528 393.845978,563.593933 
	C406.609253,562.968323 419.370087,562.293030 432.580688,561.634155 
z"/>
<path fill="#000000" opacity="1.000000" stroke="none" 
	d="
M590.875427,554.315308 
	C602.604736,552.352478 614.083008,552.467957 625.506165,551.921265 
	C639.461121,551.253418 653.436707,550.971191 667.406616,550.682983 
	C674.439209,550.537903 678.109375,553.228638 678.812012,558.518921 
	C679.405640,562.989014 676.007385,567.322327 669.921631,568.936768 
	C661.352356,571.210083 652.503662,571.442017 643.708191,571.256165 
	C639.003540,571.156677 637.594543,572.698914 637.190674,577.482422 
	C635.872498,593.094666 626.524658,604.504211 610.284180,602.673523 
	C602.148621,601.756348 595.128357,595.605286 592.786926,587.028259 
	C592.131836,584.628723 591.605286,582.172424 591.287659,579.707642 
	C590.822388,576.096863 589.921814,573.204773 585.911072,571.718628 
	C582.925110,570.612244 581.437622,567.607544 581.911621,564.347534 
	C582.640015,559.337769 585.316956,555.754028 590.875427,554.315308 
z"/>
<path fill="#000000" opacity="1.000000" stroke="none" 
	d="
M509.286011,682.968750 
	C505.183594,680.978516 501.645355,678.823975 498.657745,675.855347 
	C494.304016,671.529236 493.464996,667.072998 496.332428,663.497070 
	C499.214447,659.902771 503.832642,659.517334 508.914001,662.661438 
	C518.639221,668.679199 529.250610,671.839539 540.611755,671.532898 
	C552.409180,671.214355 562.835999,666.489319 572.327637,659.691528 
	C573.479614,658.866394 574.238525,657.427124 575.032593,656.178894 
	C578.096130,651.363403 582.166809,649.830078 586.235779,652.036072 
	C590.156799,654.161865 591.763672,659.756592 589.296570,664.301697 
	C586.230896,669.949402 581.668945,674.433655 576.271362,677.799866 
	C555.022461,691.051880 532.739258,692.522156 509.286011,682.968750 
z"/>
<path fill="#000000" opacity="1.000000" stroke="none" 
	d="
M442.888580,505.218323 
	C438.431122,505.173553 434.498444,505.497498 430.609802,506.580750 
	C423.927124,508.442322 420.029663,507.042236 418.499207,502.477325 
	C417.048920,498.151611 419.904999,493.075317 425.239716,490.636108 
	C432.584686,487.277740 440.352478,487.007904 448.156006,488.018768 
	C452.574982,488.591248 456.902405,489.862366 461.040833,491.639496 
	C463.973572,492.898926 466.635162,494.560913 468.847046,496.865479 
	C472.779541,500.962677 473.327179,504.909332 470.519775,508.381775 
	C467.658569,511.920746 463.579651,512.553650 458.927673,509.602692 
	C454.110413,506.546814 448.936401,505.290894 442.888580,505.218323 
z"/>
<path fill="#000000" opacity="1.000000" stroke="none" 
	d="
M638.661499,497.850647 
	C635.846863,499.471466 633.318237,499.521667 630.627563,498.690033 
	C621.193481,495.774200 612.266602,497.379333 603.767883,502.013000 
	C597.196533,505.595795 592.657104,505.398651 590.140747,501.258057 
	C587.553101,497.000153 589.272644,491.476746 595.040039,487.734436 
	C607.952698,479.355652 621.619873,477.818695 635.642944,484.727722 
	C641.797241,487.759857 642.798767,492.635773 638.661499,497.850647 
z"/>
<path fill="#000000" opacity="1.000000" stroke="none" 
	d="
M556.122009,627.583862 
	C547.977112,630.552246 540.683167,629.882019 534.264160,624.360718 
	C527.549561,618.585144 528.261902,610.955200 535.735229,606.218933 
	C542.334473,602.036743 549.301697,602.237061 556.290039,604.641479 
	C560.967773,606.250854 564.062683,609.391235 564.487732,614.826538 
	C564.985718,621.194397 561.344910,624.612610 556.122009,627.583862 
z"/>
</svg>