<svg version="1.1" id="Layer_1" xmlns="http://www.w3.org/2000/svg" xmlns:xlink="http://www.w3.org/1999/xlink" x="0px" y="0px"
	 width="100%" viewBox="0 0 1024 1024" enable-background="new 0 0 1024 1024" xml:space="preserve">
<path fill="#000000" opacity="1.000000" stroke="none" 
	d="
M330.192383,104.060806 
	C340.664764,101.395180 347.595459,93.955444 355.477356,87.927216 
	C370.537140,76.409180 387.748718,72.609886 405.877899,77.207794 
	C415.377991,79.617210 423.698059,77.003311 432.308319,75.282372 
	C446.819855,72.381927 461.407043,70.777428 476.126556,69.391739 
	C493.412415,67.764442 510.672577,67.379654 527.940369,67.870598 
	C540.658875,68.232193 553.347046,69.766533 566.034119,71.121529 
	C579.310303,72.539429 592.240112,75.303291 605.245239,77.926445 
	C608.462036,78.575287 611.503357,77.841980 614.594910,77.152077 
	C638.967529,71.712990 659.772339,78.217087 677.193298,95.945976 
	C678.357727,97.131012 679.492371,98.140427 681.167419,98.776276 
	C709.414429,109.498947 735.941895,123.524590 761.442810,139.726501 
	C774.668945,148.129654 786.873047,157.848984 799.656860,166.805527 
	C803.116821,169.229660 804.839844,172.077225 804.391907,176.431366 
	C803.051270,189.463120 801.943726,202.518661 800.682129,215.558823 
	C799.469788,228.088837 796.933289,240.474121 796.415955,253.077118 
	C796.012695,262.900574 799.807861,271.206543 806.239502,278.406921 
	C810.675415,283.373047 810.389709,284.209991 804.424377,287.030304 
	C790.152283,293.778015 781.360596,304.699677 777.815308,320.394318 
	C772.467224,344.069763 789.421570,368.775116 813.353882,371.791870 
	C845.312500,375.820374 870.125671,343.730865 862.488403,315.912994 
	C860.179199,307.502075 855.759888,299.968842 849.039246,294.148407 
	C845.674622,291.234436 846.645508,289.750824 850.111206,288.112610 
	C857.922119,284.420502 865.038330,279.633698 868.776306,271.555603 
	C871.343811,266.007080 872.842407,259.967499 874.889038,254.172226 
	C875.478882,252.501938 875.400879,250.520584 876.920959,249.249786 
	C878.683228,249.084534 879.255005,250.531464 879.978882,251.507919 
	C894.872925,271.598206 907.975159,292.775146 918.497986,315.496735 
	C926.679871,333.163635 934.487122,351.011780 940.119263,369.666077 
	C945.826721,388.570038 951.378662,407.504883 954.536865,427.114655 
	C956.725037,440.701630 959.227417,454.218475 960.158569,467.961334 
	C961.650879,489.986847 963.503906,511.965942 961.581299,534.119995 
	C960.434387,547.335083 959.873108,560.616150 958.393127,573.810425 
	C955.776794,597.135315 950.464478,619.918091 943.769775,642.362976 
	C933.172852,677.890625 918.456665,711.644531 899.847412,743.746094 
	C884.682190,769.906921 866.665833,793.780151 845.786377,815.675903 
	C835.909180,826.033936 825.992798,836.276306 815.420471,845.925476 
	C797.819153,861.989929 779.339233,876.866272 758.919189,889.229797 
	C752.091248,893.363708 745.245667,897.469421 738.368652,901.520874 
	C736.553894,902.589966 735.363953,903.646973 735.267700,906.101196 
	C735.016785,912.496033 730.679749,916.935364 724.108704,918.096985 
	C717.955505,919.184692 714.504761,916.985107 711.597839,910.122498 
	C708.516113,902.847168 708.518066,902.852051 700.947693,905.839539 
	C689.831970,910.226379 678.713074,914.605225 667.378784,919.072815 
	C668.553772,923.102783 669.348877,927.471375 669.342529,931.945740 
	C669.332092,939.286255 666.513794,943.344360 659.731384,946.170898 
	C636.126282,956.008484 611.460266,961.789612 586.236816,965.421204 
	C567.519531,968.116150 548.671448,969.183289 529.813354,970.472351 
	C509.782257,971.841553 489.882812,970.453064 470.055542,969.004578 
	C451.939636,967.681152 433.652222,966.447815 415.840637,962.332153 
	C399.183685,958.483215 382.585236,954.496399 366.556396,948.218140 
	C356.051910,944.103760 349.061829,937.007019 353.443939,924.038025 
	C353.961578,922.506104 353.924011,920.786560 354.178009,918.899719 
	C340.363434,914.580750 327.731781,907.431152 313.772827,902.374451 
	C312.327942,905.537842 310.986603,908.345337 309.754181,911.199829 
	C307.244202,917.013245 303.218048,919.167847 296.986145,917.949036 
	C290.830048,916.745056 287.293915,913.164673 287.733032,907.222290 
	C288.112610,902.086060 285.526825,900.213440 281.515900,898.090515 
	C257.425568,885.339844 235.884384,868.922546 215.554367,850.909668 
	C185.685242,824.444885 158.736816,795.290039 136.513580,762.056030 
	C119.639839,736.821838 106.141045,709.797241 94.981705,681.527161 
	C89.355209,667.273438 84.176163,652.893494 79.744156,638.261841 
	C74.206917,619.981506 69.479492,601.370239 67.458099,582.414612 
	C65.897141,567.776611 63.520527,553.131531 63.725533,538.306702 
	C63.803295,532.682983 62.008286,527.095276 63.771580,520.056152 
	C64.459999,532.578979 70.415878,542.179321 73.423027,552.732605 
	C73.825012,554.143311 74.539444,555.546692 75.414238,556.727478 
	C79.984612,562.896912 84.652260,563.155090 88.948517,556.848328 
	C92.808250,551.182373 96.606400,545.938232 102.837929,542.389893 
	C107.684097,539.630371 109.272598,534.034973 110.228340,528.688721 
	C114.419342,505.244904 119.821136,482.036133 123.036232,458.394226 
	C125.505272,440.238281 126.166870,422.189209 122.731972,404.198334 
	C120.981224,395.028473 117.211952,386.356995 113.029015,378.030670 
	C109.981514,371.964508 101.152695,369.512024 95.611145,373.211639 
	C90.190010,376.830811 84.388214,380.407623 81.882645,387.121826 
	C80.294464,386.479553 81.091118,385.382233 81.290108,384.597656 
	C87.773178,359.035583 97.431969,334.697540 109.239403,311.140900 
	C118.935318,291.796967 128.853271,272.606598 141.903931,255.246414 
	C151.192657,242.890396 160.753143,230.776611 171.228882,219.353317 
	C180.461334,209.285797 189.854187,199.388214 199.718231,189.968613 
	C218.522491,172.011581 239.236862,156.449570 260.815247,141.975876 
	C277.834686,130.560120 295.230865,119.827888 313.775574,111.061470 
	C319.033813,108.575829 324.482422,106.492912 330.192383,104.060806 
M353.297668,230.404816 
	C357.906464,254.280624 365.074188,277.413208 373.758087,300.084961 
	C376.507324,307.262634 375.020203,312.304047 368.414185,315.898163 
	C364.762177,317.885101 360.949646,319.615448 357.454193,321.845093 
	C341.271912,332.167267 326.577728,344.250427 313.618805,358.491730 
	C299.957367,373.505066 288.854401,390.320984 280.215759,408.482025 
	C271.238617,427.354675 263.619507,446.858002 258.946259,467.448181 
	C255.001511,484.828430 252.585114,502.398956 251.542358,520.069519 
	C250.308273,540.982056 251.633942,561.877747 255.213348,582.624390 
	C258.798676,603.405396 264.113953,623.482788 274.936829,641.840271 
	C281.881714,653.620178 289.790619,664.503601 299.245148,674.506409 
	C311.068481,687.015381 324.776947,696.721130 339.670746,704.879883 
	C351.332855,711.268372 363.762329,715.933472 376.487183,719.911865 
	C398.544647,726.807983 420.951477,732.118530 443.766022,735.682251 
	C462.269531,738.572571 480.820221,741.531250 499.589691,741.441040 
	C511.865051,741.382080 524.153076,741.371277 536.448669,740.874756 
	C552.450317,740.228455 568.187866,737.729492 583.811462,735.018982 
	C604.705017,731.394287 625.384827,726.522705 645.487305,719.298279 
	C667.717346,711.309265 688.766846,701.492371 707.349243,686.632751 
	C724.007751,673.311462 737.009155,656.985474 746.975098,638.393127 
	C753.060181,627.040894 757.734070,614.990417 761.173706,602.363037 
	C765.919861,584.939087 768.558105,567.264771 769.457092,549.395020 
	C770.265564,533.325684 769.717468,517.217773 767.878357,501.116028 
	C765.683899,481.903015 761.975952,463.139496 755.875427,444.801880 
	C745.391846,413.289124 731.358215,383.868317 708.732178,358.909332 
	C693.815430,342.454437 677.322998,328.319366 657.561401,318.109192 
	C647.174133,312.742432 645.153259,307.469147 649.575806,296.579041 
	C655.844116,281.143951 660.515747,265.181519 664.572266,249.083267 
	C669.924683,227.842529 673.268188,206.257339 674.873657,184.340942 
	C676.425598,163.156036 675.153259,142.774323 666.134644,123.049507 
	C653.830811,96.139442 619.676025,91.217506 598.770508,113.994781 
	C587.761841,125.989052 581.611755,140.742966 575.862915,155.677139 
	C571.249084,167.662628 568.315247,180.141296 565.942932,192.684189 
	C562.956787,208.471680 560.307312,224.366257 558.545288,240.328613 
	C557.035217,254.009140 557.057007,267.854736 556.251709,281.618561 
	C555.770081,289.850006 550.964172,293.415192 542.878479,292.246277 
	C521.695984,289.183990 500.494812,289.273499 479.309357,292.289215 
	C473.170776,293.162994 469.050354,290.335510 467.559570,284.293091 
	C465.260498,274.974579 466.855438,265.449646 465.911133,256.002930 
	C463.913605,236.019516 461.675476,216.139175 457.727905,196.418503 
	C452.596802,170.785278 444.952759,146.191864 430.862000,123.917656 
	C422.258057,110.316795 411.001099,100.405991 394.231689,99.504822 
	C376.439178,98.548668 361.589508,110.199669 354.066925,128.262726 
	C348.254364,142.219727 347.648712,156.762665 347.486237,171.289276 
	C347.267456,190.851074 348.605743,210.399170 353.297668,230.404816 
M569.616028,789.231567 
	C549.933960,803.187744 528.179565,809.737549 503.956390,808.158630 
	C470.479919,805.976562 444.601593,791.508057 428.210083,761.716919 
	C425.817413,757.368347 422.892059,754.966309 418.121033,753.868286 
	C412.711578,752.623291 407.896210,753.681946 403.215912,756.137329 
	C392.872894,761.563599 383.273102,768.157410 374.376678,775.673218 
	C349.666382,796.548889 330.383331,821.809753 315.201111,850.253418 
	C311.790344,856.643433 307.757538,862.803101 305.896210,870.080566 
	C322.510406,880.610107 340.845551,886.869446 358.881805,895.673584 
	C360.298340,888.303833 361.745636,882.182556 362.603912,875.979675 
	C363.903320,866.588867 365.749146,857.314941 367.933533,848.109070 
	C369.089996,843.235352 373.810608,840.512695 379.598724,840.904663 
	C385.093323,841.276794 388.607849,844.561829 389.399567,849.616699 
	C390.746643,858.217651 388.224487,866.386292 386.725372,874.639160 
	C383.879578,890.306030 380.742859,905.920471 377.664276,921.544312 
	C377.031952,924.753296 377.461823,926.771423 381.170441,927.888916 
	C397.223206,932.725952 413.206207,937.649841 429.795746,940.562683 
	C450.122711,944.131653 470.621307,945.944641 491.156158,946.510376 
	C519.386841,947.288086 547.615479,946.728210 575.709595,942.783630 
	C597.950012,939.661072 619.808716,935.205688 640.998352,927.683960 
	C643.451660,926.813110 644.615417,925.845398 644.100586,922.625183 
	C640.540283,900.355957 636.005005,878.272827 631.770752,856.132935 
	C630.316528,848.529114 633.615051,842.492981 640.300720,841.041687 
	C647.657410,839.444702 652.778259,842.591370 654.624634,850.415771 
	C657.670837,863.324646 658.734741,876.610596 661.998413,889.511353 
	C663.006470,893.496460 664.361023,894.038208 667.751831,892.809814 
	C673.531616,890.715698 679.420288,888.918823 685.181702,886.777832 
	C694.400940,883.351929 703.052429,878.677673 711.808289,874.250977 
	C715.351135,872.459717 716.256714,869.920898 714.180420,866.107849 
	C711.406677,861.013916 709.491089,855.442993 706.611816,850.417969 
	C693.955261,828.328552 680.479675,806.962769 661.934753,788.960571 
	C647.721375,775.163086 632.638489,762.999634 615.004456,754.006104 
	C606.722351,749.782104 597.099243,752.580261 592.380920,760.790161 
	C586.377563,771.236145 579.072144,780.635132 569.616028,789.231567 
M534.785706,782.273315 
	C545.076416,778.942871 554.292175,773.848816 561.712463,765.824219 
	C562.711975,764.743225 564.143555,763.657043 563.298828,761.974182 
	C562.413513,760.210510 560.530701,760.131836 558.897522,760.439514 
	C553.157776,761.520691 547.309692,761.242615 541.561584,761.904419 
	C517.457092,764.679688 493.420197,763.357361 469.352295,761.450134 
	C464.698029,761.081299 459.998718,759.150024 455.270416,760.810608 
	C454.885834,763.115112 456.544281,764.012207 457.626617,765.158081 
	C471.050690,779.368774 488.122253,785.302856 507.108612,786.595764 
	C516.331421,787.223816 525.269165,785.312927 534.785706,782.273315 
M936.640991,546.791992 
	C939.210266,542.807617 937.717285,538.425415 937.792053,534.214661 
	C937.821106,532.578735 937.356873,530.733154 935.107422,530.760010 
	C933.348999,530.780945 931.712646,531.544067 931.315674,533.382507 
	C930.550842,536.924194 929.017029,540.310730 929.038208,544.011414 
	C929.049683,546.004150 928.987305,548.212891 931.000854,549.303467 
	C933.220764,550.505798 934.663391,548.714417 936.640991,546.791992 
z"/>
<path fill="#000000" opacity="1.000000" stroke="none" 
	d="
M870.345215,212.140350 
	C865.318726,228.216751 860.401917,243.908264 855.496094,259.603180 
	C852.507385,269.165009 846.111877,274.164459 836.557129,274.381653 
	C826.184143,274.617401 818.218140,269.162415 814.303894,260.579529 
	C810.942932,253.209946 811.792603,245.795959 813.036255,238.562683 
	C815.596985,223.669495 816.101013,208.533386 818.755615,193.691986 
	C822.523010,172.630035 822.814209,151.084534 827.514954,130.193665 
	C831.826965,111.030632 847.630371,102.872574 866.090820,106.202271 
	C886.579468,109.897820 894.139648,127.694618 890.444824,144.478470 
	C887.117065,159.594666 881.487061,174.011551 877.355591,188.880737 
	C875.223999,196.552551 872.768616,204.134384 870.345215,212.140350 
z"/>
<path fill="#000000" opacity="1.000000" stroke="none" 
	d="
M792.656311,330.617004 
	C791.849609,311.259979 804.705933,301.052521 818.617981,299.163239 
	C840.422791,296.202179 854.313904,319.251709 846.415588,337.321594 
	C841.802307,347.875885 834.203613,354.388245 823.171875,356.093231 
	C812.803894,357.695557 803.888245,354.014313 797.327576,345.473694 
	C794.061340,341.221741 792.814758,336.313965 792.656311,330.617004 
z"/>
<path fill="#000000" opacity="1.000000" stroke="none" 
	d="
M475.081238,660.557556 
	C472.732544,648.179077 472.850281,636.508484 477.945312,625.008972 
	C483.983978,611.379639 494.403473,603.537598 508.801331,602.175903 
	C523.471436,600.788391 533.790527,609.068787 540.977905,620.983643 
	C551.463928,638.367004 549.915894,668.579468 531.481750,682.773438 
	C513.025879,696.984131 490.308624,689.771240 480.283295,672.850281 
	C478.103821,669.171631 476.879883,664.926941 475.081238,660.557556 
M495.019226,642.353271 
	C493.358124,647.940613 494.937622,653.286560 496.876129,658.339050 
	C499.145294,664.253174 503.657074,668.802246 510.132660,668.988647 
	C515.998718,669.157593 520.016663,664.948608 522.775940,659.815613 
	C527.849243,650.377991 527.814026,640.554016 522.296631,631.829041 
	C515.497803,621.077820 507.449890,620.911133 499.263428,631.018555 
	C496.860168,633.985718 495.393250,637.582275 495.019226,642.353271 
z"/>
<path fill="#000000" opacity="1.000000" stroke="none" 
	d="
M638.256104,520.264648 
	C638.505615,527.398743 637.765015,533.985962 636.328613,540.481689 
	C634.919800,546.852356 631.486938,552.187500 626.826172,556.587341 
	C618.197632,564.732727 605.140137,563.860168 596.810913,555.426697 
	C584.190979,542.648743 584.119995,511.234039 594.474609,497.559357 
	C606.749878,481.348297 625.379333,486.839569 632.948608,501.721222 
	C635.787720,507.303223 637.582397,513.452637 638.256104,520.264648 
z"/>
<path fill="#000000" opacity="1.000000" stroke="none" 
	d="
M410.172913,562.262573 
	C392.736206,559.848145 386.747772,545.234436 386.565125,533.055481 
	C386.477722,527.226379 386.140808,521.343567 386.754028,515.573975 
	C387.880737,504.973267 391.468719,495.598969 401.658539,490.077789 
	C410.170929,485.465515 421.733734,487.629211 427.844208,495.193665 
	C436.335205,505.705078 436.710449,518.105957 436.265778,530.726562 
	C436.001068,538.238770 433.637939,545.042847 429.679626,551.385315 
	C425.258270,558.469727 418.781281,561.829590 410.172913,562.262573 
z"/>
<path fill="#000000" opacity="1.000000" stroke="none" 
	d="
M526.216797,554.284912 
	C528.828491,563.688538 524.252502,571.001709 514.798401,573.074280 
	C506.189606,574.961426 497.308441,569.486694 495.791351,561.357483 
	C493.986511,551.686279 505.848389,542.042236 515.572693,545.382812 
	C520.058716,546.923950 524.038147,549.285095 526.216797,554.284912 
z"/>
</svg>