<svg version="1.1" id="Layer_1" xmlns="http://www.w3.org/2000/svg" xmlns:xlink="http://www.w3.org/1999/xlink" x="0px" y="0px"
	 width="100%" viewBox="0 0 1024 1024" enable-background="new 0 0 1024 1024" xml:space="preserve">
<path fill="#000000" opacity="1.000000" stroke="none" 
	d="
M364.103119,947.148621 
	C352.310699,942.905396 348.985748,940.110962 352.086304,923.937744 
	C352.911743,919.632202 351.749786,918.053528 347.901215,916.680420 
	C336.655823,912.668091 325.545319,908.277649 314.352203,904.024170 
	C312.517944,906.494019 313.240417,909.070557 313.099854,911.475891 
	C312.647247,919.220947 308.170624,923.508667 300.587646,923.338867 
	C293.457672,923.179260 288.426025,918.578247 288.920227,911.251282 
	C289.376556,904.486084 286.861115,901.124023 281.024872,897.692383 
	C228.203171,866.633789 183.963547,825.828552 147.616058,776.692688 
	C115.715714,733.568726 93.187103,685.742615 79.258156,633.858887 
	C72.518051,608.752686 67.263741,583.431458 65.618423,557.448669 
	C65.351402,553.231873 65.580910,548.983704 65.580910,544.177368 
	C67.676041,546.570312 68.272583,549.123108 68.909050,551.645264 
	C70.391289,557.518982 72.662514,563.026489 76.314026,567.913147 
	C78.917931,571.397705 81.950508,572.411987 86.326630,570.907776 
	C102.740913,565.265747 109.422958,552.011536 112.837479,536.667358 
	C118.264183,512.280762 119.459839,487.185760 124.812172,462.737305 
	C127.224960,451.716125 127.802368,440.364227 127.990341,428.979614 
	C128.275925,411.683319 122.458572,396.349121 114.659676,381.486725 
	C110.710526,373.960785 101.883812,371.786926 94.579460,376.170685 
	C89.695358,379.101959 85.139618,382.390503 81.435432,387.778564 
	C81.578819,379.401672 84.721588,372.466095 87.043579,365.416412 
	C101.273018,322.215149 122.415970,282.673767 149.360687,246.004440 
	C178.294525,206.628098 213.522369,173.943451 253.294708,146.030426 
	C278.164490,128.576309 304.817841,114.120354 332.960144,102.543266 
	C336.354614,101.146851 338.607269,99.244820 340.306030,95.761375 
	C347.169434,81.687691 357.391449,70.706017 372.178314,64.838020 
	C393.168701,56.508228 412.970642,59.576794 431.346191,72.294197 
	C434.397400,74.405869 437.026428,74.718468 440.593567,73.990738 
	C455.907684,70.866524 471.438782,69.439713 487.043457,68.558601 
	C496.014618,68.052055 504.966400,67.549927 513.957947,67.595634 
	C537.106689,67.713295 560.099060,69.535095 582.814697,74.046844 
	C587.018738,74.881844 590.065430,73.957901 593.407043,71.532379 
	C613.995728,56.588020 641.439514,56.270760 662.192627,70.546059 
	C670.908508,76.541405 677.524292,84.481209 681.998657,93.924278 
	C684.215637,98.602974 687.472351,100.836670 691.956299,102.775146 
	C735.781006,121.721382 776.559387,145.670807 812.649841,177.178467 
	C839.475647,200.597916 863.721741,226.366562 883.947876,255.781326 
	C908.145874,290.972473 927.136841,328.689178 940.483826,369.342987 
	C948.854858,394.840485 954.801758,420.842255 958.948730,447.262054 
	C960.822205,459.197632 961.100769,471.376465 962.352295,483.418976 
	C963.387939,493.383423 963.263916,503.360138 963.372620,513.345825 
	C963.591797,533.476624 961.655334,553.433838 959.618591,573.441956 
	C957.454285,594.702881 952.988892,615.425171 947.340027,635.910461 
	C936.037598,676.897949 919.543335,715.728333 896.537781,751.545959 
	C870.158447,792.616150 838.017883,828.620972 800.167175,859.580872 
	C781.025146,875.237976 760.822937,889.253845 739.570862,901.802368 
	C735.853760,903.997131 734.164795,906.550964 734.234192,910.987610 
	C734.342102,917.886047 730.166016,921.991760 723.598816,922.360535 
	C716.019287,922.786194 711.789368,919.453003 710.467651,912.471558 
	C709.945129,909.711548 710.626099,906.786438 709.037842,903.589417 
	C702.215820,905.943298 695.348389,908.197327 688.567932,910.688232 
	C682.946167,912.753479 677.487976,915.272095 671.838745,917.251709 
	C668.571899,918.396423 667.946960,920.415100 668.489990,923.413635 
	C668.874634,925.536926 669.149536,927.685120 669.364075,929.833191 
	C670.367188,939.875854 669.483154,941.761902 660.105774,945.799072 
	C645.990967,951.875916 631.023071,955.063538 616.078369,958.371338 
	C593.474243,963.374634 570.582520,965.916321 547.527710,967.465149 
	C535.575439,968.268127 523.633606,969.119934 511.649506,969.061890 
	C491.526611,968.964478 471.504120,967.684021 451.454956,965.656921 
	C428.413300,963.327332 405.753265,959.482422 383.463501,953.353149 
	C377.059906,951.592346 370.797852,949.316711 364.103119,947.148621 
M682.700378,326.831390 
	C672.504333,319.915039 662.225830,313.116089 652.142273,306.039459 
	C645.843201,301.618805 644.605164,297.273102 646.869446,290.024200 
	C648.952209,283.356598 650.971008,276.666870 653.183228,270.042053 
	C665.903442,231.948914 674.307007,193.197372 672.814880,152.668518 
	C672.261292,137.634521 669.749878,123.244232 663.398865,109.651726 
	C648.752136,78.304581 619.019348,77.435242 598.284729,97.932259 
	C588.414124,107.689735 581.919006,119.776306 576.742737,132.478790 
	C563.912415,163.964310 559.772095,197.201157 557.272644,230.780319 
	C556.293213,243.939270 556.484253,257.046478 556.847778,270.206665 
	C557.092590,279.070618 551.699768,283.421570 543.040588,282.219238 
	C522.833008,279.413361 502.666931,279.201233 482.428741,282.159698 
	C472.815887,283.564972 465.970184,281.150116 466.525269,268.561035 
	C467.214539,252.928558 467.019073,237.244400 465.457214,221.645706 
	C463.305267,200.154434 460.675842,178.727478 454.702911,157.872055 
	C448.468750,136.104248 440.447723,115.219337 424.893188,98.114540 
	C405.827972,77.149124 377.099884,80.063591 362.646606,104.368538 
	C359.569672,109.542763 356.925232,114.926208 355.305145,120.720581 
	C351.263794,135.174866 349.789825,149.782532 349.986786,164.929398 
	C350.285034,187.862747 352.988037,210.313034 358.405609,232.489990 
	C363.182465,252.044266 369.371857,271.196686 375.573822,290.337524 
	C377.812317,297.246033 376.087585,302.307343 370.071320,306.310760 
	C366.467499,308.708862 362.834869,311.071106 359.131348,313.310760 
	C320.562286,336.634277 292.994049,369.534698 274.271149,410.263123 
	C258.238281,445.139801 251.689301,482.056641 250.378967,520.080811 
	C249.469299,546.478027 252.031342,572.489319 259.195557,598.066589 
	C268.147430,630.026123 285.491913,656.334167 310.521667,677.888794 
	C336.365723,700.144653 366.747070,713.149841 399.297852,721.656555 
	C432.593048,730.357849 466.661743,733.645142 500.929504,734.504639 
	C527.521057,735.171509 554.129639,734.084167 580.531738,730.596375 
	C609.021973,726.832764 636.666870,719.641296 662.872437,707.642273 
	C712.362671,684.981750 747.420166,649.357483 762.301514,595.872986 
	C768.713745,572.827271 770.932922,549.334717 770.970215,525.413391 
	C771.012268,498.462708 767.966187,472.080231 760.717285,446.148010 
	C747.367371,398.390106 722.233765,358.323547 682.700378,326.831390 
M446.812653,785.749390 
	C436.609650,777.903015 428.544617,768.337158 423.019958,756.638672 
	C419.539917,749.269653 417.174957,748.752502 409.846680,752.208923 
	C378.925537,766.793030 354.751556,789.267700 334.743408,816.509644 
	C323.372894,831.990967 314.084991,848.712341 306.718933,866.491577 
	C305.072601,870.465332 305.782898,872.454895 309.862000,874.549744 
	C323.691803,881.652161 338.381592,886.590759 352.729675,892.384155 
	C354.051331,892.917786 355.451660,893.740112 357.006104,893.199402 
	C358.035614,892.407043 358.367950,891.292236 358.580322,890.135010 
	C360.287476,880.832764 361.963074,871.524597 363.691071,862.226257 
	C364.722198,856.677673 365.493439,851.050415 366.990997,845.626770 
	C368.771332,839.179077 375.230347,836.098206 382.217682,837.768982 
	C387.991730,839.149597 390.665894,843.996338 389.586273,850.918152 
	C385.952240,874.216736 381.611694,897.390808 376.875214,920.482666 
	C375.923767,925.121277 377.211395,926.484802 381.392944,927.733459 
	C399.589111,933.167236 418.091705,936.956299 436.886353,939.607544 
	C453.665833,941.974426 470.492767,943.947754 487.402588,944.540161 
	C516.526184,945.560364 545.606262,944.707214 574.544006,940.722778 
	C596.775269,937.661743 618.871033,934.089294 640.351257,927.304932 
	C643.723755,926.239807 644.429382,924.881592 643.821899,921.674316 
	C641.474243,909.280762 639.345398,896.845886 637.085388,884.435486 
	C635.002502,872.998047 632.523560,861.620361 630.858826,850.123718 
	C629.815002,842.914856 633.433899,838.271179 639.212280,837.610779 
	C647.537659,836.659180 652.921631,840.333313 654.321106,847.798096 
	C656.979370,861.976685 659.720886,876.139648 662.368347,890.320190 
	C662.813843,892.706421 663.705566,894.058838 666.380066,893.144897 
	C682.304077,887.703125 697.919739,881.521362 712.984436,873.981750 
	C715.631104,872.657104 716.174500,870.853577 715.115662,868.279297 
	C713.216309,863.661560 711.526001,858.947388 709.416809,854.428223 
	C697.012085,827.849426 679.637573,804.823730 658.856567,784.278076 
	C645.577454,771.149353 630.244324,760.932739 613.497375,752.800110 
	C606.539246,749.421082 595.616638,751.731812 592.950073,756.981506 
	C577.105591,788.175720 549.968323,802.489624 516.744995,806.043274 
	C491.345215,808.760071 467.971832,801.657654 446.812653,785.749390 
M537.062195,776.546448 
	C546.326660,772.218933 555.475037,767.734619 561.438232,758.303711 
	C543.251953,758.037231 525.301208,758.811096 507.342438,759.122559 
	C489.491547,759.432190 471.708527,756.228394 453.087097,756.682800 
	C464.181549,774.447571 501.390259,790.961121 537.062195,776.546448 
z"/>
<path fill="#000000" opacity="1.000000" stroke="none" 
	d="
M663.901245,549.659241 
	C655.453613,562.349365 638.566589,565.247192 626.835205,556.200928 
	C620.539062,551.345886 617.882141,544.262817 617.715637,536.495300 
	C617.413940,522.424744 619.222473,523.252380 603.937073,523.263000 
	C596.441772,523.268250 588.938538,523.438354 581.453064,523.157593 
	C571.378845,522.779724 565.632812,515.162659 568.956177,506.958374 
	C570.882629,502.202698 574.597778,500.171448 579.581726,500.293549 
	C602.388916,500.852203 625.195190,500.627899 648.003235,500.342865 
	C655.645325,500.247314 663.311340,500.104767 670.927246,500.593262 
	C675.680054,500.898071 679.210449,503.553131 680.706604,508.561920 
	C682.090210,513.193787 680.288635,516.641846 677.406860,519.902893 
	C676.386597,521.057495 675.141235,522.150696 673.670410,522.246704 
	C668.066711,522.612305 667.666992,526.197571 668.001221,530.591736 
	C668.503052,537.188232 667.503967,543.529541 663.901245,549.659241 
z"/>
<path fill="#000000" opacity="1.000000" stroke="none" 
	d="
M364.319489,524.324463 
	C362.227875,523.981934 360.583221,523.715088 358.969727,523.320618 
	C353.296936,521.933655 349.468811,516.659058 350.082855,511.141327 
	C350.686188,505.719513 355.192871,501.714966 361.183746,501.669312 
	C374.162048,501.570343 387.141663,501.635681 400.120728,501.634521 
	C416.594177,501.633057 433.067902,501.687103 449.540863,501.598572 
	C454.629730,501.571228 458.237000,503.535034 459.943329,508.394104 
	C461.835083,513.781128 460.705231,519.288757 455.797943,521.379517 
	C449.054840,524.252441 448.914001,529.046082 449.042908,535.011353 
	C449.332825,548.425415 441.090668,558.787476 428.641022,561.434998 
	C414.036682,564.540833 399.453217,553.270447 398.701263,538.294189 
	C398.676270,537.796021 398.688110,537.296021 398.681183,536.796875 
	C398.508453,524.352600 398.508392,524.357727 386.246002,524.362976 
	C379.090912,524.366028 371.935822,524.349365 364.319489,524.324463 
z"/>
<path fill="#000000" opacity="1.000000" stroke="none" 
	d="
M562.284790,635.985962 
	C558.729553,641.585449 553.182312,641.885986 547.929993,641.961304 
	C525.147888,642.287964 502.361786,642.369324 479.576782,642.439880 
	C472.790039,642.460938 467.860291,637.780701 467.713379,631.562256 
	C467.564606,625.265991 472.656097,620.018250 479.420715,619.776306 
	C484.738312,619.585999 490.067383,619.744629 495.389862,619.657043 
	C513.996399,619.350952 532.601318,618.900146 551.208923,618.714783 
	C561.945862,618.607849 566.561890,625.744385 562.284790,635.985962 
z"/>
<path fill="#000000" opacity="1.000000" stroke="none" 
	d="
M492.714050,559.125122 
	C494.107788,551.994751 496.499420,549.535156 503.102692,548.500916 
	C508.046295,547.726562 513.043884,547.727173 517.981506,548.579590 
	C524.841125,549.763916 528.482300,554.018555 528.338684,560.414856 
	C528.202881,566.468689 524.388916,570.145813 517.721313,571.477051 
	C512.011963,572.617004 506.517578,572.259888 501.065338,570.497986 
	C495.788086,568.792725 492.674316,565.345703 492.714050,559.125122 
z"/>
</svg>