<svg version="1.1" id="Layer_1" xmlns="http://www.w3.org/2000/svg" xmlns:xlink="http://www.w3.org/1999/xlink" x="0px" y="0px"
	 width="100%" viewBox="0 0 1024 1024" enable-background="new 0 0 1024 1024" xml:space="preserve">
<path fill="#000000" opacity="1.000000" stroke="none" 
	d="
M668.327515,927.051514 
	C670.223389,941.049194 663.880005,945.075378 654.092468,948.467102 
	C634.075867,955.403564 613.374451,959.389954 592.461304,962.377441 
	C572.074158,965.289612 551.617004,968.093994 531.077637,969.018616 
	C511.170776,969.914734 491.197296,969.868774 471.229279,967.748840 
	C456.710022,966.207397 442.206177,964.924561 427.772797,962.524841 
	C405.864044,958.882202 384.819611,952.226562 363.865540,945.242493 
	C351.347321,941.070129 348.882812,936.020081 351.673035,923.235840 
	C354.449280,910.515564 354.480499,910.445068 342.556427,905.163147 
	C333.279816,901.053955 323.912994,897.148315 314.283508,893.022400 
	C311.730988,896.963745 311.141998,901.605713 309.775665,905.950378 
	C308.582214,909.745544 306.218201,912.535950 302.277435,913.168396 
	C297.956940,913.861877 293.522430,913.943726 290.489410,909.767578 
	C289.907471,908.966309 288.920563,908.012512 289.014709,907.237732 
	C289.750641,901.179626 284.987701,899.957581 281.122101,897.792542 
	C254.422760,882.838074 229.621078,865.352356 207.477692,844.064941 
	C182.322189,819.881897 158.323517,794.760681 139.151764,765.426208 
	C119.876671,735.933716 103.700081,704.915405 91.274246,671.836182 
	C81.883934,646.838013 74.423416,621.402893 69.212227,595.265503 
	C68.207573,590.226562 67.503014,585.122314 66.831497,580.025635 
	C66.628242,578.482849 66.244598,576.717407 67.909973,575.074036 
	C70.252434,577.846069 72.457664,580.621643 75.132027,583.028076 
	C79.737946,587.172668 84.850121,588.473450 90.788719,587.901001 
	C95.269585,587.468994 98.630653,585.630310 100.800789,581.517761 
	C102.972809,577.401611 105.373810,573.399536 107.812286,569.432129 
	C114.408638,558.700012 115.463493,546.793579 114.734032,534.705078 
	C113.758812,518.544006 114.141464,502.434418 114.738670,486.274414 
	C115.382256,468.859406 112.862488,451.749390 107.283905,435.149292 
	C106.065613,431.524048 105.243927,427.765869 104.230453,424.071411 
	C102.244873,416.833221 99.265274,414.096771 93.174461,413.904541 
	C83.782867,413.608063 78.549118,416.696564 76.067284,423.734039 
	C74.863419,427.147797 73.307510,430.437347 71.363472,435.094818 
	C69.962753,429.370392 71.211479,425.209869 72.026405,421.186523 
	C82.467598,369.637268 101.795441,321.465820 128.527176,276.325195 
	C143.926086,250.321747 162.769592,226.865936 183.593338,204.856934 
	C211.761002,175.085999 243.576691,150.164062 278.919464,129.627991 
	C298.663727,118.155487 319.158813,108.133476 340.152710,99.168777 
	C343.359741,97.799332 345.295227,95.549461 346.922211,92.892921 
	C359.220917,72.811577 378.154724,63.912399 400.641785,62.211990 
	C411.482422,61.392258 422.167633,64.002953 430.820496,71.552032 
	C432.921021,73.384598 434.962097,73.738731 437.677002,73.218567 
	C454.331665,70.027527 471.153931,68.385849 488.094238,67.470390 
	C495.732635,67.057617 503.357910,66.819679 510.998016,66.623802 
	C536.856445,65.960838 562.451294,67.988396 587.682678,73.873947 
	C589.317261,74.255226 590.800415,74.900932 592.351196,73.543869 
	C608.775146,59.171623 627.176453,60.178974 646.189331,66.846710 
	C657.216492,70.713913 665.965759,77.961006 672.920227,87.076088 
	C676.921753,92.320732 681.757202,95.689224 687.522888,98.571442 
	C713.881653,111.748077 740.428223,124.647675 765.093079,140.890732 
	C794.135803,160.016846 820.604248,182.359833 844.440674,207.639954 
	C877.619202,242.827911 904.015686,282.548431 923.416077,327.000549 
	C936.696289,357.429443 948.123108,388.401794 954.630249,420.987366 
	C958.594666,440.839752 961.569031,460.854858 962.547241,481.170471 
	C962.971558,489.981750 963.283813,498.777740 963.221191,507.578766 
	C962.974854,542.216187 959.191284,576.444946 951.828735,610.332520 
	C944.733459,642.989746 933.897034,674.372192 920.365417,704.809509 
	C903.396362,742.979004 879.682678,776.870728 853.190979,809.004700 
	C825.181580,842.979431 790.872559,869.358093 754.127869,892.933289 
	C751.188293,894.819214 748.138367,896.558350 745.027893,898.146667 
	C740.306519,900.557556 735.951965,902.690491 734.586670,908.922424 
	C733.669128,913.110596 729.364136,915.313660 724.730103,915.085205 
	C720.011414,914.852417 716.385498,912.568481 714.768799,908.034119 
	C713.045410,903.200562 711.734558,898.219910 710.270508,893.392273 
	C708.501648,892.547485 707.250854,893.588806 705.914734,894.140808 
	C694.070618,899.033813 682.278564,904.058411 670.357849,908.757019 
	C666.510437,910.273560 664.429993,911.868652 666.076294,916.418762 
	C667.250427,919.663818 667.593140,923.209839 668.327515,927.051514 
M310.773499,685.691772 
	C328.061371,700.309265 347.781830,710.613892 369.179749,717.553955 
	C393.228546,725.353760 417.864807,730.710327 443.001068,733.803406 
	C468.243347,736.909485 493.479797,738.665039 518.971985,737.873413 
	C543.124390,737.123291 567.003601,734.530334 590.776550,730.562012 
	C617.787903,726.052979 644.148987,719.336548 668.743835,706.848877 
	C703.861145,689.018494 730.809692,663.162109 747.948608,627.316406 
	C758.518494,605.209778 763.890869,581.820679 765.461548,557.647034 
	C767.364441,528.361450 765.729187,499.238586 759.157471,470.431061 
	C752.101624,439.501099 739.015564,411.227875 722.279541,384.605255 
	C708.624512,362.883606 691.611084,343.973785 670.963013,328.519958 
	C663.057251,322.602936 653.736511,319.092163 645.595764,313.563446 
	C637.287598,307.920990 635.966309,304.376587 640.201721,295.149078 
	C645.901306,282.731628 650.963623,270.106110 655.078003,257.070007 
	C666.013489,222.421570 672.655396,187.227158 669.681641,150.662323 
	C668.453064,135.556564 664.932983,121.210510 657.895325,107.675911 
	C648.564148,89.730270 629.508789,81.919388 610.626404,88.991890 
	C595.865112,94.520805 586.754700,105.871284 579.945679,119.533501 
	C563.084900,153.364563 557.517212,189.896545 554.434448,226.956650 
	C553.150085,242.397232 553.802307,257.922821 554.337646,273.408691 
	C554.442566,276.444031 554.172974,279.421906 553.116516,282.256775 
	C551.974304,285.321991 549.735596,287.317841 546.377075,287.304901 
	C538.051636,287.272766 529.689575,287.490265 521.410400,286.795013 
	C507.560791,285.631989 493.807556,286.969727 480.086151,288.025543 
	C471.288574,288.702484 465.749908,285.009277 465.641205,276.311188 
	C465.333740,251.700500 466.434204,227.084900 463.852539,202.491699 
	C461.324738,178.411697 457.150208,154.757172 448.487396,132.103455 
	C443.612030,119.354065 437.808472,107.207832 427.548126,97.387978 
	C406.532867,77.274933 374.602234,86.890083 363.673767,107.783371 
	C353.337463,127.544540 351.373932,148.687027 350.521606,170.119385 
	C349.880432,186.242447 352.485504,202.255310 354.703735,218.201004 
	C355.173248,221.576340 354.246002,225.580841 357.673187,228.410568 
	C369.239471,237.960434 376.768494,249.986877 379.576202,264.864838 
	C379.880280,266.476135 380.314240,268.611938 383.052399,268.189148 
	C386.326630,267.683594 389.627045,267.316010 392.927887,267.019714 
	C407.371033,265.723175 421.505707,266.010681 433.697784,275.510071 
	C451.185852,289.135834 458.211639,306.899323 454.433258,328.763214 
	C451.683838,344.672974 443.809265,357.704315 431.310394,367.838928 
	C428.003632,370.520172 427.520477,372.718567 429.696777,376.530731 
	C435.441956,386.594421 436.293518,397.295044 434.335388,408.819855 
	C427.519562,448.934845 374.299896,471.773499 345.172119,448.098541 
	C341.868347,445.413208 339.973206,446.277008 337.447174,449.238373 
	C322.720642,466.503052 298.949982,472.795105 277.618011,465.292572 
	C273.223633,463.747040 268.793915,462.270355 264.505157,460.465668 
	C260.696045,458.862793 258.811157,459.633728 257.750671,463.860474 
	C252.151917,486.174866 249.086380,508.840637 248.411972,531.796509 
	C247.844879,551.099304 249.289810,570.300842 253.387192,589.218140 
	C261.681244,627.511169 279.591766,660.153198 310.773499,685.691772 
M515.471252,944.675049 
	C558.629883,943.086365 601.450745,939.247498 643.337585,926.566467 
	C641.850220,918.500244 640.614990,911.487732 639.257202,904.499084 
	C635.809448,886.752686 632.227112,869.032043 628.877075,851.267456 
	C627.925171,846.219727 629.098755,841.577759 633.691101,838.512634 
	C640.980408,833.647339 649.667114,837.402649 651.877930,846.834900 
	C654.641235,858.624390 656.933167,870.531616 659.127869,882.443420 
	C659.930481,886.799927 661.771423,887.052307 665.331299,885.500977 
	C676.620605,880.581177 688.063171,876.008423 699.297058,870.968506 
	C704.057068,868.832947 709.192688,867.230347 713.339172,863.713745 
	C710.414917,856.078491 706.082886,849.552246 702.128296,842.816040 
	C687.989868,818.732666 671.953125,796.172852 651.213501,777.169189 
	C639.563171,766.494019 627.074402,757.226440 612.262146,751.519531 
	C604.328308,748.462830 592.878845,753.483215 589.296997,761.124023 
	C587.733826,764.458679 585.840332,767.584473 583.550598,770.460388 
	C568.380676,789.513916 548.697876,801.321899 524.789062,805.255249 
	C506.319061,808.293884 487.846985,806.911621 470.386383,799.642761 
	C450.755463,791.470520 434.893219,778.802124 425.866211,758.883972 
	C425.151306,757.306519 424.416931,756.087158 422.655609,755.381958 
	C412.915497,751.482544 403.489075,750.655334 394.497894,757.397278 
	C391.439484,759.690613 388.043274,761.534485 384.993073,763.837524 
	C365.975220,778.196716 350.214661,795.744080 335.841858,814.594604 
	C325.021851,828.785461 315.641693,843.918518 307.089386,859.575134 
	C305.402405,862.663513 305.524567,864.446655 309.256134,865.990784 
	C323.401184,871.843689 337.334839,878.209167 351.497955,884.016235 
	C359.476898,887.287598 358.486603,888.462463 360.676117,878.950684 
	C363.354218,867.316711 364.687500,855.373108 368.456451,843.998108 
	C370.364716,838.238892 374.394470,835.923645 379.943939,836.754395 
	C385.101868,837.526550 388.994171,841.567261 389.300110,846.929565 
	C389.469330,849.895630 389.399353,852.959534 388.850494,855.868713 
	C385.036072,876.087646 381.049072,896.274048 377.157684,916.478577 
	C375.524597,924.957825 375.500183,925.208252 384.047943,927.642517 
	C399.538544,932.054016 415.220215,935.488220 431.177917,938.029724 
	C458.807953,942.430359 486.472443,945.451233 515.471252,944.675049 
M299.115662,444.745941 
	C307.738495,443.085022 315.740601,440.378387 321.712250,433.288544 
	C325.007385,429.376312 327.097168,424.949707 329.063629,420.351196 
	C332.678284,411.898590 340.324677,410.298798 347.068207,416.590027 
	C349.377777,418.744720 351.390137,421.215942 353.675385,423.399017 
	C359.595306,429.054169 366.378418,433.014923 374.737640,433.752350 
	C387.472443,434.875671 397.278168,428.725037 405.814026,420.448669 
	C410.818695,415.596161 413.448456,408.788116 413.330750,401.894043 
	C413.151184,391.376312 408.573364,382.405884 401.130402,374.848389 
	C391.346039,364.913483 392.239441,360.741760 405.169678,355.886902 
	C415.091675,352.161530 422.608398,345.702484 428.079498,336.744263 
	C433.910248,327.197266 434.575104,317.380280 429.467285,307.305695 
	C423.641541,295.815094 415.121368,288.475677 401.500214,288.068970 
	C392.491699,287.800018 384.464874,290.191956 376.863892,294.786621 
	C368.445923,299.875153 363.158325,297.500092 361.153839,287.873657 
	C359.936584,282.027924 359.016022,276.111450 357.577240,270.322449 
	C352.926117,251.608414 335.912720,234.256363 309.139557,243.031296 
	C292.509888,248.481705 287.087585,265.503387 287.716614,279.784180 
	C287.974365,285.635864 290.588867,291.008270 291.695526,296.701019 
	C292.848267,302.630859 289.774567,306.342316 283.733643,306.369446 
	C281.398041,306.379913 279.123535,306.159912 276.829315,305.555664 
	C268.037842,303.240143 259.316376,302.286224 250.339767,305.341095 
	C233.833572,310.958466 223.959625,327.434601 227.323349,344.049103 
	C229.685318,355.715729 244.906113,374.293854 258.042969,373.921478 
	C260.454437,373.853119 262.936096,374.799683 265.320038,375.500092 
	C272.153137,377.507812 273.768127,381.548248 269.665100,387.396820 
	C263.073517,396.792633 260.523834,406.973999 263.464996,418.096344 
	C266.234497,428.569519 270.115082,438.469788 281.515717,442.789337 
	C286.932434,444.841675 292.514740,445.200958 299.115662,444.745941 
M456.589661,757.354126 
	C455.033783,757.299255 453.291901,756.336304 452.116821,758.206787 
	C458.052765,771.793884 488.349823,783.863892 515.250488,782.542053 
	C533.918579,781.624756 549.558289,773.432312 563.250916,760.768127 
	C560.520020,757.524353 558.009888,758.292053 555.847351,758.491760 
	C531.309998,760.757019 506.728577,761.275452 482.131866,760.109009 
	C473.864594,759.716980 465.643066,758.360474 456.589661,757.354126 
M919.014648,511.707520 
	C918.468994,518.789795 919.435913,525.798767 922.013000,532.274658 
	C923.927124,537.084534 925.482361,543.147217 932.175537,543.914490 
	C939.104126,544.708618 944.239502,541.227417 945.848572,534.388611 
	C948.002991,525.231812 947.494995,515.871521 946.512207,506.625153 
	C945.883606,500.711578 945.133850,494.690155 942.571045,489.187195 
	C940.259277,484.223328 934.956848,480.468414 930.873352,481.286224 
	C925.938354,482.274597 924.182800,486.586395 923.130432,490.776947 
	C921.474487,497.371307 920.383850,504.107574 919.014648,511.707520 
z"/>
<path fill="#000000" opacity="1.000000" stroke="none" 
	d="
M513.973267,600.722046 
	C525.717407,600.065735 536.972351,599.393616 548.229980,598.769958 
	C550.554626,598.641174 552.890137,598.634583 555.219116,598.670837 
	C570.813904,598.913513 577.073120,606.638733 574.915649,622.111023 
	C572.913513,636.468689 570.782715,650.762146 563.797668,663.711975 
	C555.574707,678.956787 543.507019,689.978394 526.839966,695.344360 
	C504.356964,702.583008 475.646027,692.564392 461.058990,672.889771 
	C450.578735,658.754211 446.494720,642.500366 444.690002,625.437256 
	C444.153748,620.367126 442.749908,615.320984 444.504395,610.153625 
	C446.898346,603.103027 449.906311,600.613708 457.240356,600.750122 
	C466.864319,600.929138 476.481903,600.248535 486.120728,601.510559 
	C495.214844,602.701111 504.343109,600.534607 513.973267,600.722046 
M501.421112,674.086548 
	C511.435638,677.988708 520.522217,675.418457 528.710083,669.470215 
	C543.053345,659.050232 548.187256,643.446960 551.559204,627.022278 
	C552.071716,624.525879 550.764404,623.271912 548.172058,623.414917 
	C542.692810,623.717041 537.208252,624.292969 531.732666,624.223450 
	C512.097473,623.974243 492.476959,626.116272 472.826874,624.413086 
	C467.634460,623.963074 466.587402,625.532166 467.655060,630.616760 
	C469.377899,638.821167 472.233765,646.685547 476.587555,653.792419 
	C482.285767,663.094055 490.082581,670.225586 501.421112,674.086548 
z"/>
<path fill="#000000" opacity="1.000000" stroke="none" 
	d="
M654.772461,547.354248 
	C652.337708,553.152405 648.119873,555.028870 642.538818,554.208252 
	C637.077271,553.405212 634.837341,549.409546 633.707764,544.640991 
	C632.669800,540.258972 631.539001,536.019043 628.928345,532.196655 
	C623.452271,524.178772 619.122498,522.058899 611.598755,524.197205 
	C603.459717,526.510437 599.494934,531.688171 599.412231,540.740479 
	C599.375305,544.786499 598.575867,548.424255 595.477905,551.075134 
	C592.636963,553.506165 589.552368,554.992065 585.437622,553.398804 
	C580.133911,551.344971 577.620728,547.452148 576.719177,542.227234 
	C574.756348,530.851379 579.611206,521.340454 585.805847,512.592041 
	C589.005859,508.072784 593.167969,504.118683 598.143921,501.135468 
	C610.197510,493.908966 625.471130,494.212067 636.578674,502.883026 
	C648.314636,512.044617 655.997437,523.681458 656.355591,539.190002 
	C656.418396,541.909485 655.801575,544.463379 654.772461,547.354248 
z"/>
<path fill="#000000" opacity="1.000000" stroke="none" 
	d="
M384.056396,500.880310 
	C407.783447,486.955750 435.769867,505.748657 439.343933,530.408508 
	C440.161255,536.047729 440.944489,541.603577 438.320709,547.030151 
	C435.832306,552.176636 432.165741,554.244141 426.645721,553.410461 
	C421.372040,552.613953 418.296997,549.224548 417.653931,543.641846 
	C417.369568,541.173279 417.101288,538.676514 416.493500,536.276672 
	C415.002655,530.390259 411.639832,525.890991 405.511688,524.533691 
	C399.000092,523.091553 393.326874,524.923584 389.155121,530.441528 
	C386.304871,534.211548 384.272614,538.369812 383.364655,543.019165 
	C382.783600,545.994568 381.644012,548.736877 380.264618,551.403564 
	C378.504456,554.806396 375.469727,555.825928 371.925842,555.758057 
	C368.400513,555.690613 366.059174,553.888672 364.569916,550.708862 
	C361.468781,544.087585 362.376129,537.231201 364.055267,530.666626 
	C367.136444,518.620789 372.813324,508.028992 384.056396,500.880310 
z"/>
<path fill="#000000" opacity="1.000000" stroke="none" 
	d="
M523.874756,556.309937 
	C527.507812,562.727905 526.581665,566.013550 520.970215,570.037109 
	C513.548401,575.358765 506.159607,576.865845 497.958069,571.623413 
	C490.040680,566.562622 489.997650,558.168579 498.134979,553.513855 
	C507.729309,548.025696 514.682129,548.709717 523.874756,556.309937 
z"/>
<path fill="#000000" opacity="1.000000" stroke="none" 
	d="
M363.861847,371.681763 
	C354.104828,386.548828 331.973114,394.777313 316.806000,388.478882 
	C307.920685,384.789062 301.558289,378.861725 298.181366,370.166901 
	C294.329742,360.249756 293.338745,349.936646 296.386597,339.440033 
	C300.523285,325.193634 314.217377,314.389587 329.038483,313.659882 
	C340.235107,313.108673 350.429535,315.159821 358.971100,323.121063 
	C370.375427,333.750641 374.033356,355.784668 363.861847,371.681763 
M319.250580,363.063904 
	C323.252258,368.453888 327.359283,369.732697 333.542694,367.839752 
	C339.300018,366.077209 342.593048,361.829071 345.109406,356.798553 
	C348.817474,349.385681 346.381897,342.459961 338.948639,338.878326 
	C331.018341,335.057251 322.527435,337.389557 319.143921,344.437744 
	C316.308197,350.344849 316.718445,356.367493 319.250580,363.063904 
z"/>
</svg>