<svg version="1.1" id="Layer_1" xmlns="http://www.w3.org/2000/svg" xmlns:xlink="http://www.w3.org/1999/xlink" x="0px" y="0px"
	 width="100%" viewBox="0 0 1024 1024" enable-background="new 0 0 1024 1024" xml:space="preserve">
<path fill="#000000" opacity="1.000000" stroke="none" 
	d="
M628.794678,58.606979 
	C648.945679,56.252552 665.569885,62.159260 678.863220,77.068657 
	C684.667847,83.579033 689.568970,90.653137 692.758179,98.820770 
	C693.682495,101.188072 695.583984,102.399620 697.722351,103.461815 
	C715.466614,112.275757 733.148804,121.176918 750.100342,131.505432 
	C787.659912,154.390289 820.941711,182.420242 850.254028,215.076843 
	C869.191101,236.174347 885.265564,259.449829 899.933350,283.738464 
	C918.191589,313.972656 931.935608,346.163147 942.770996,379.668518 
	C950.298462,402.944977 954.921753,426.935028 958.954346,450.983673 
	C960.977905,463.051727 962.110229,475.364563 962.317139,487.673401 
	C962.440002,494.983612 963.529785,502.213501 963.436218,509.563599 
	C963.095276,536.337708 961.856018,563.091431 957.112671,589.429504 
	C950.710449,624.978577 940.817932,659.569092 926.016113,692.704224 
	C910.513367,727.408386 891.204590,759.776367 867.772461,789.620422 
	C843.178345,820.944458 814.770630,848.366760 782.657959,872.075378 
	C763.704590,886.068542 744.022766,898.729126 723.271362,909.800476 
	C716.327148,913.505249 716.131409,913.631836 711.977417,906.966553 
	C709.799927,903.472595 707.897705,903.296692 704.341248,905.059021 
	C694.197998,910.085266 683.606384,914.129272 672.811218,917.525269 
	C668.005798,919.036987 666.601929,921.724182 667.559570,926.455872 
	C669.269714,934.905212 667.054443,939.301514 659.084229,943.473999 
	C646.148682,950.246094 632.165039,953.947815 618.063599,957.306335 
	C598.325928,962.007080 578.134705,963.803345 558.059998,965.871765 
	C536.416870,968.101685 514.669189,968.999329 492.791229,967.681824 
	C468.707306,966.231506 444.819946,963.710938 421.146881,959.244446 
	C402.550873,955.735840 383.923279,952.162964 366.397034,944.623535 
	C360.529388,942.099365 354.422821,939.363403 354.045349,931.761292 
	C353.859558,928.020020 354.832977,924.221130 355.305847,920.246460 
	C347.063354,917.569946 339.030457,915.017517 331.038727,912.342041 
	C327.259827,911.076904 323.490479,909.733521 319.847046,908.129822 
	C317.192841,906.961487 315.288147,907.354370 314.102356,909.955383 
	C312.355530,913.786865 309.892883,913.215149 306.787354,911.681030 
	C284.471771,900.656982 263.683197,887.216370 243.661819,872.482971 
	C219.014938,854.345825 196.506577,833.789124 176.247162,810.980591 
	C147.473923,778.586853 123.350220,742.916809 104.856468,703.603394 
	C91.145355,674.456909 80.348022,644.214294 73.828636,612.707153 
	C69.773895,593.111084 65.901436,573.356384 65.391197,553.148315 
	C65.242607,547.263062 64.599495,541.354675 64.097832,535.184814 
	C67.501205,535.276550 67.920769,537.726074 68.737091,539.516663 
	C70.532593,543.455017 71.805374,547.653625 73.825027,551.463135 
	C77.354782,558.121155 83.003426,559.024292 87.834854,553.330322 
	C93.345253,546.836182 98.755020,540.515625 106.116722,535.863281 
	C109.994240,533.412720 110.754837,528.333191 111.731659,523.917053 
	C113.319702,516.737732 113.290985,509.325500 114.560036,502.132568 
	C117.190506,487.223083 120.180222,472.378632 122.774437,457.456146 
	C124.064484,450.035522 125.520363,442.694916 125.053474,435.166779 
	C124.527031,426.678650 125.692780,418.244202 125.223625,409.724701 
	C124.567337,397.807251 119.056641,387.357635 116.155090,376.144501 
	C114.348106,369.161407 103.536682,366.630432 95.457779,370.136749 
	C91.904495,371.678894 88.776756,373.715393 86.938568,377.433502 
	C86.182816,378.962158 85.659271,380.886169 83.294121,382.055023 
	C85.155365,373.913879 87.559334,366.417084 90.196709,359.001251 
	C103.787766,320.785675 122.382080,285.166321 146.349304,252.447311 
	C194.190842,187.136139 254.243698,136.792511 329.092255,104.997726 
	C336.927063,101.669601 342.718414,97.770409 347.154449,90.136314 
	C357.912903,71.621719 374.874115,61.035236 395.871246,58.036263 
	C408.251709,56.267986 421.097870,58.351173 431.232758,65.715042 
	C440.825409,72.684952 450.581848,71.774277 460.625885,70.411987 
	C472.848694,68.754181 485.072784,67.778053 497.371979,67.677055 
	C511.036560,67.564842 524.760437,66.959930 538.354492,67.969780 
	C554.532593,69.171593 570.875366,69.777771 586.698120,73.968048 
	C589.671753,74.755562 591.691772,73.974770 593.994568,72.266335 
	C604.215149,64.683708 615.578674,59.851429 628.794678,58.606979 
M677.674561,199.349197 
	C679.416016,188.018539 680.171082,176.596390 680.851257,165.166962 
	C682.075623,144.593994 679.420410,124.803886 670.378418,105.948677 
	C657.240601,78.552597 624.383240,77.907166 607.962158,92.390678 
	C595.193909,103.652435 586.742188,117.421036 580.285217,132.755020 
	C573.174316,149.641983 567.958130,167.048508 564.174255,185.041183 
	C561.082642,199.742294 559.438538,214.521042 558.454773,229.392029 
	C557.676147,241.161453 557.165710,252.969269 557.224976,264.800385 
	C557.275330,274.855408 551.468140,279.687836 541.760681,278.126740 
	C537.930542,277.510773 534.153076,277.486572 530.337219,277.394928 
	C513.697449,276.995178 497.120331,277.871033 480.531982,279.230042 
	C472.142303,279.917419 468.504028,275.997253 468.704559,267.627472 
	C469.042877,253.508636 469.937134,239.444672 468.871368,225.266327 
	C468.076447,214.691208 468.144836,204.041718 466.622253,193.499802 
	C463.458710,171.596420 459.476105,149.858337 451.263367,129.198257 
	C443.651520,110.049896 432.158661,93.870583 412.441925,85.694458 
	C401.110657,80.995605 389.473511,81.580017 379.342804,89.473953 
	C368.595337,97.848503 362.412872,109.410690 358.229950,122.105324 
	C349.976898,147.152359 350.267609,172.778885 353.267151,198.573883 
	C355.400085,216.916504 358.590393,235.037003 364.581482,252.565186 
	C368.881775,265.146576 373.499847,277.625092 377.524994,290.292877 
	C380.177094,298.639404 378.799103,301.616180 371.691956,306.341309 
	C368.920563,308.183899 366.066010,309.907837 363.194916,311.593079 
	C344.120941,322.788727 326.526642,335.859314 312.271027,352.927277 
	C287.942535,382.055359 272.243561,415.400177 262.878052,452.145905 
	C257.262207,474.179718 253.812363,496.334106 253.255325,518.991150 
	C252.956726,531.136719 253.064011,543.264099 254.237122,555.395203 
	C255.663818,570.148560 257.999786,584.696411 262.618988,598.794373 
	C269.827209,620.794006 281.744293,639.881531 297.141327,657.232300 
	C310.736481,672.552429 326.486511,684.796631 344.314636,694.352295 
	C357.653900,701.501953 371.890442,706.863892 386.161713,711.934937 
	C421.093842,724.347473 457.429382,728.803345 494.214172,730.451355 
	C510.515564,731.181824 526.810181,730.381165 543.093445,729.612122 
	C547.894409,729.385315 552.732727,729.134827 557.461426,728.342896 
	C572.159485,725.881165 586.990479,724.481873 601.553467,720.852234 
	C623.875366,715.288757 645.965027,709.024658 666.713379,699.152161 
	C688.182617,688.936707 707.361694,675.308960 723.516357,657.467346 
	C736.650085,642.962097 747.157837,626.975098 754.635925,608.973877 
	C765.521667,582.770020 768.951477,555.113831 769.549194,527.078430 
	C770.068359,502.730347 766.858215,478.793945 761.072388,455.038055 
	C754.472961,427.941589 744.698975,402.152527 730.192505,378.531891 
	C711.288635,347.751099 685.893738,323.358826 653.221985,307.089172 
	C644.458679,302.725342 642.211426,295.742188 647.065796,287.337891 
	C662.735657,260.208954 671.496399,230.685486 677.674561,199.349197 
M641.916321,912.306030 
	C640.617737,903.105286 639.410950,893.890503 637.997437,884.707397 
	C636.207397,873.077820 634.136169,861.490784 632.417786,849.851257 
	C631.698853,844.981506 632.894531,840.486694 637.365662,837.646118 
	C641.154602,835.238953 645.102417,836.044495 648.776306,837.977478 
	C652.198853,839.778442 654.265503,842.879578 655.053894,846.599487 
	C657.253906,856.979431 659.100220,867.437256 661.455566,877.780151 
	C662.561096,882.634399 662.409424,887.908936 665.277222,892.769043 
	C682.112976,884.778320 699.022888,878.179443 715.057678,869.633179 
	C718.757324,867.661438 718.948792,865.458862 717.294067,861.984070 
	C707.759033,841.962158 697.053955,822.650879 683.742432,804.843201 
	C666.114563,781.261230 644.068970,762.812622 618.530884,748.394531 
	C612.736206,745.122986 603.861511,747.174988 600.092896,752.735596 
	C591.703613,765.114075 581.690369,775.885803 569.525940,784.656250 
	C541.885803,804.584351 511.934448,811.863892 478.575592,801.957092 
	C452.136322,794.105286 432.709717,778.423157 421.896515,752.669067 
	C419.441254,746.821289 415.681915,745.652832 409.926727,748.202209 
	C384.177612,759.608215 363.573212,777.370239 346.487976,799.464722 
	C330.190552,820.540405 317.590485,843.757935 306.790344,868.036377 
	C304.901917,872.281494 305.767975,874.485962 310.084808,875.835083 
	C312.456635,876.576355 314.680481,877.782349 316.990814,878.730530 
	C330.339813,884.209106 343.766937,889.470520 357.787292,893.636902 
	C359.401306,890.341919 360.031738,887.106689 360.667297,883.886230 
	C363.044830,871.839233 365.146454,859.731323 367.829163,847.753296 
	C369.477386,840.393982 374.308716,837.589233 381.542084,838.747131 
	C386.771057,839.584106 390.685242,844.579712 390.249298,850.949280 
	C389.808594,857.387939 388.935669,863.836426 387.703125,870.173828 
	C384.496582,886.661560 384.025055,903.481079 381.358246,920.026855 
	C380.723999,923.961975 382.038635,926.023987 386.372498,926.858215 
	C397.612274,929.021851 408.724762,931.836914 419.925964,934.213318 
	C445.970184,939.738770 472.299438,942.983826 498.923553,943.702026 
	C525.928589,944.430420 552.774719,942.824341 579.526855,938.891541 
	C599.937073,935.891052 619.957520,931.158997 640.020020,926.553101 
	C641.582825,926.194336 643.483398,925.993652 643.214478,923.560913 
	C642.831848,920.100952 642.472656,916.638367 641.916321,912.306030 
M487.481750,757.338379 
	C475.979523,757.826538 464.628845,754.449341 453.150391,755.488281 
	C452.593231,757.997681 454.129059,759.002625 455.243774,760.130737 
	C468.955139,774.006531 485.485626,781.243164 505.080780,781.680603 
	C525.605286,782.138855 542.829041,774.015320 558.567322,761.790771 
	C559.927124,760.734619 562.241394,759.851135 561.446899,757.633911 
	C560.641907,755.387634 558.256104,756.250488 556.587891,756.341614 
	C546.488159,756.892883 536.405701,757.920471 526.301514,758.187012 
	C513.685242,758.519958 501.047791,758.515137 487.481750,757.338379 
z"/>
<path fill="#000000" opacity="1.000000" stroke="none" 
	d="
M470.096924,651.261414 
	C468.082825,653.314636 465.723755,653.810425 463.458191,654.060486 
	C459.697906,654.475464 455.948700,653.841431 453.558960,650.601440 
	C450.647675,646.654358 450.522430,641.796387 452.573029,637.774231 
	C461.892609,619.494324 476.773499,608.058960 496.877106,603.767944 
	C506.749084,601.660889 516.767456,602.117737 526.593445,604.070312 
	C540.403748,606.814758 550.841675,615.291504 560.223511,625.208679 
	C565.037109,630.296875 569.573486,635.554382 569.726990,643.244141 
	C569.830750,648.445984 568.018921,651.805237 563.500305,653.342529 
	C557.458801,655.397949 553.386475,654.276245 550.552063,649.452698 
	C544.815552,639.690552 536.985291,632.024719 526.643127,627.590210 
	C508.079865,619.630737 485.418030,627.089417 474.527069,644.178650 
	C473.097656,646.421570 471.746368,648.714233 470.096924,651.261414 
z"/>
<path fill="#000000" opacity="1.000000" stroke="none" 
	d="
M410.870300,504.723022 
	C418.700470,506.675842 426.104553,508.566711 433.496521,510.503815 
	C436.293915,511.236816 438.632782,512.390625 439.999207,515.350891 
	C447.671417,531.972412 438.140717,557.509827 421.368835,564.935120 
	C410.891266,569.573669 398.781799,565.860840 392.073273,555.961121 
	C387.965729,549.899658 385.725616,543.105042 385.073181,535.921570 
	C384.382904,528.321838 383.811096,520.630798 385.728729,513.092834 
	C387.325104,506.817810 391.501892,503.726929 398.058136,503.616913 
	C402.223175,503.547058 406.379120,503.545654 410.870300,504.723022 
z"/>
<path fill="#000000" opacity="1.000000" stroke="none" 
	d="
M623.364746,561.473755 
	C607.308838,572.982971 593.368835,565.168457 585.117676,551.937317 
	C578.668701,541.595947 578.137817,529.954468 580.947205,518.181641 
	C581.823730,514.508545 583.912964,512.119263 587.668640,510.899780 
	C599.060852,507.200623 610.441956,503.538269 622.606506,503.642853 
	C628.447815,503.693054 633.894897,506.959106 635.011780,512.587402 
	C638.544983,530.392334 636.723267,547.195129 623.364746,561.473755 
z"/>
<path fill="#000000" opacity="1.000000" stroke="none" 
	d="
M424.884460,483.333649 
	C414.106598,479.483307 404.238007,474.637207 395.435669,467.948059 
	C391.296967,464.803009 386.806152,461.492950 388.519928,454.839386 
	C389.960724,449.245575 394.092072,446.112976 399.907562,447.151489 
	C403.024323,447.708069 406.102844,448.664368 408.713959,450.516174 
	C420.892273,459.152924 434.912445,463.406189 448.983795,467.513458 
	C456.089905,469.587708 458.902985,472.877441 458.264130,478.915039 
	C457.665527,484.572144 452.896362,488.385895 446.061157,488.277374 
	C438.811707,488.162323 432.112854,485.421326 424.884460,483.333649 
z"/>
<path fill="#000000" opacity="1.000000" stroke="none" 
	d="
M578.818848,466.622742 
	C592.650146,463.029694 605.487610,458.157867 616.862915,449.959869 
	C617.533081,449.476898 618.305115,449.131226 619.042542,448.746277 
	C624.796143,445.742859 630.453918,446.456879 633.496948,450.563690 
	C636.885803,455.137207 636.181274,461.487518 631.166138,465.743652 
	C617.539490,477.307983 601.612610,484.068970 584.141846,487.329742 
	C580.092468,488.085510 576.050110,489.092316 571.895386,487.362122 
	C567.275085,485.437988 565.330933,482.219025 565.604614,477.231812 
	C565.867371,472.444183 567.926514,469.419708 572.670959,468.305176 
	C574.607056,467.850342 576.505310,467.234497 578.818848,466.622742 
z"/>
<path fill="#000000" opacity="1.000000" stroke="none" 
	d="
M512.820679,554.744812 
	C517.449829,556.710815 521.169128,559.242432 522.212708,564.086182 
	C523.580872,570.436218 520.378113,575.201233 513.132568,578.157898 
	C507.554596,580.434143 499.936035,578.206360 496.705719,573.354553 
	C493.829926,569.035034 494.615967,561.635925 498.662567,557.655457 
	C502.543579,553.837830 507.284149,553.111145 512.820679,554.744812 
z"/>
</svg>