<svg version="1.1" id="Layer_1" xmlns="http://www.w3.org/2000/svg" xmlns:xlink="http://www.w3.org/1999/xlink" x="0px" y="0px"
	 width="100%" viewBox="0 0 1024 1024" enable-background="new 0 0 1024 1024" xml:space="preserve">
<path fill="#000000" opacity="1.000000" stroke="none" 
	d="
M359.860382,946.295898 
	C352.141510,942.150513 349.899689,937.857300 351.993469,929.920166 
	C352.863007,926.623901 351.789520,925.317200 349.138123,924.197144 
	C339.021820,919.923889 328.916321,915.624695 318.831451,911.277893 
	C316.836029,910.417725 315.352264,910.334961 313.436615,911.922119 
	C309.355469,915.303650 304.015381,915.458923 299.595917,912.244324 
	C288.695587,904.315735 277.064484,897.522217 265.822540,890.127502 
	C242.416489,874.731506 219.715912,858.394470 199.749557,838.655273 
	C178.776627,817.921082 159.406479,795.767151 142.380920,771.603577 
	C120.597549,740.687378 103.238258,707.517090 90.086037,672.051941 
	C81.570343,649.089294 74.406395,625.788757 70.311020,601.629395 
	C68.234253,589.378113 66.646301,577.041504 65.004913,564.721191 
	C64.716705,562.557922 64.096252,560.115051 65.825493,558.026367 
	C68.463463,558.256287 68.752739,560.585266 69.657806,562.185791 
	C72.677612,567.526062 76.609375,572.197510 83.128654,571.736572 
	C90.126823,571.241821 95.795242,567.667603 98.345337,560.567383 
	C99.694305,556.811523 101.964195,553.720947 105.225220,551.596680 
	C108.855476,549.231812 110.630829,545.902100 111.749710,541.923279 
	C114.654579,531.593384 115.519974,520.989807 116.479187,510.359711 
	C117.978302,493.746429 122.316162,477.561462 124.415276,461.034302 
	C126.599159,443.839752 128.583984,426.626495 125.817169,409.270569 
	C123.886520,397.159821 118.153648,386.561035 112.194405,376.227844 
	C107.897598,368.777222 95.570198,369.213776 88.466980,376.326538 
	C86.800552,377.995239 85.114563,379.518463 82.403557,380.787506 
	C83.442436,373.550537 85.844597,367.109314 88.213661,360.722626 
	C96.791061,337.599121 106.770157,315.077759 119.110947,293.710083 
	C133.116379,269.460144 149.396851,246.799210 167.315857,225.235016 
	C179.477432,210.599442 192.269470,196.608200 206.089676,183.596359 
	C227.021835,163.888519 250.265823,147.221008 275.042511,132.656265 
	C295.450134,120.659821 316.358063,109.701302 338.521393,101.261963 
	C342.077240,99.907959 344.426453,96.938812 346.954315,94.336433 
	C358.215485,82.743370 371.920441,76.385101 387.909454,74.692642 
	C392.788330,74.176216 397.914001,74.570328 402.194183,76.121712 
	C411.375275,79.449455 419.986938,76.688492 428.681885,75.288704 
	C445.421112,72.593887 462.167084,70.515106 479.119232,69.451225 
	C497.939514,68.270088 516.727051,68.573524 535.515625,68.930878 
	C551.461121,69.234154 567.242188,71.893341 583.018616,74.125893 
	C590.884460,75.239006 598.654785,77.026718 606.468872,78.506256 
	C609.212891,79.025803 611.782471,78.004967 614.302612,77.319824 
	C636.424683,71.305542 656.054016,76.441788 672.264465,92.028549 
	C681.421326,100.833031 692.642761,104.872574 703.553711,109.944160 
	C725.491028,120.141006 746.537109,131.877640 766.520935,145.525330 
	C769.918579,147.845734 771.057007,150.504303 769.421204,154.433136 
	C767.219360,159.721344 766.977417,165.443787 766.408264,171.036697 
	C764.328674,191.472626 785.096863,208.424179 803.107605,208.688339 
	C807.920349,208.758942 812.741333,208.305389 817.212341,210.911407 
	C822.877502,214.213425 823.260620,217.642044 818.386169,221.980896 
	C813.069153,226.713715 809.206848,232.602814 806.483459,239.082321 
	C801.770630,250.295074 798.058289,261.776764 796.989014,274.074432 
	C796.337891,281.562469 798.290649,287.986816 802.827637,293.545807 
	C805.974854,297.401978 805.002136,299.355927 801.128357,301.483734 
	C785.929077,309.832672 776.267151,334.223877 788.094299,353.405853 
	C792.943481,361.270538 799.593262,366.613647 807.935303,370.176636 
	C823.625244,376.878052 842.061707,371.142609 851.597534,360.039825 
	C863.692139,345.957825 866.521606,328.020630 858.578308,313.292633 
	C856.792114,309.980835 854.087036,307.556549 851.367798,305.093018 
	C850.057678,303.906189 848.215820,303.163361 847.614319,300.620636 
	C857.823242,294.779266 862.359985,284.643799 866.278381,274.110168 
	C867.054077,272.025024 868.396851,270.876404 870.517883,270.347992 
	C874.708252,269.304077 878.817932,267.837982 883.058044,267.118988 
	C887.534119,266.360046 891.252625,268.275665 893.646851,272.143311 
	C906.101501,292.262726 917.615479,312.874481 926.613953,334.823914 
	C936.027466,357.785645 944.188660,381.153198 949.545471,405.413513 
	C953.479553,423.230591 956.562073,441.188385 958.407227,459.376648 
	C959.549133,470.632416 960.460266,481.856506 960.431152,493.171631 
	C960.419678,497.647705 961.093628,502.121704 961.197327,506.602631 
	C961.629028,525.248230 960.544495,543.870422 959.111267,562.423950 
	C957.809265,579.280396 954.700500,595.970215 951.317383,612.553040 
	C942.943726,653.597412 928.269836,692.378357 908.127136,729.017944 
	C891.093933,760.001465 871.228027,788.905640 847.471619,815.419861 
	C814.408752,852.320984 775.924927,881.917603 733.451416,906.806396 
	C731.308228,908.062195 729.153381,909.356689 727.221924,910.905090 
	C720.241516,916.501343 714.881287,916.049072 709.214355,908.960388 
	C696.670776,914.363342 684.038574,919.812500 671.397522,925.240967 
	C669.433533,926.084351 669.447815,927.466309 669.762756,929.336182 
	C671.531433,939.838379 668.969482,944.129456 658.946960,948.147034 
	C634.696716,957.868103 609.223877,962.571411 583.549866,966.277588 
	C551.237854,970.942017 518.712585,972.306091 486.109070,971.159241 
	C469.361481,970.570068 452.685791,968.822388 436.104645,966.279358 
	C414.237671,962.925720 392.674438,958.284241 371.636902,951.355103 
	C367.678406,950.051331 363.794739,948.587463 359.860382,946.295898 
M463.604431,240.893692 
	C462.976288,236.129440 462.218597,231.378128 461.741882,226.598770 
	C459.377411,202.892380 455.091217,179.573105 447.340912,157.003311 
	C441.347412,139.549667 433.952545,122.722694 419.283997,110.617599 
	C402.593750,96.844109 387.904907,94.212097 370.329163,106.665382 
	C356.747070,116.288956 350.154602,130.431061 348.454559,146.573975 
	C346.981720,160.559525 346.194489,174.551834 346.984772,188.780167 
	C348.227722,211.158249 352.206970,232.915939 357.729828,254.472321 
	C361.696136,269.953186 367.071442,284.978973 373.936981,299.459961 
	C376.668732,305.221954 374.661316,311.513702 369.768738,314.220459 
	C349.950195,325.184906 332.462494,338.987213 317.060425,355.691040 
	C286.145325,389.219055 266.905609,428.476868 257.579346,472.913483 
	C253.615509,491.799957 250.961975,510.830688 250.404907,530.101501 
	C249.714935,553.970337 252.782318,577.490417 258.486908,600.625549 
	C263.148376,619.530457 271.157532,637.078430 282.198944,653.103027 
	C298.982574,677.461426 322.050690,694.451904 348.356537,707.029358 
	C372.571625,718.607361 398.159241,726.178101 424.570312,731.258789 
	C446.948120,735.563599 469.418610,739.122437 492.128693,740.430420 
	C517.742371,741.905579 543.320007,739.933167 568.712341,736.482666 
	C594.587585,732.966675 620.014221,727.415161 644.755676,718.742493 
	C671.793457,709.264709 696.499878,695.886841 717.493286,676.314514 
	C743.627197,651.949829 758.763123,621.661804 764.435608,586.473145 
	C767.396545,568.105042 770.160645,549.759888 769.760620,531.050537 
	C769.635864,525.216675 769.081421,519.444275 768.577332,513.669800 
	C767.740784,504.085114 766.833191,494.473450 765.232117,484.995392 
	C761.567322,463.301727 755.202942,442.365021 746.914490,421.967102 
	C728.048950,375.539429 697.112305,339.758789 653.379333,315.166260 
	C646.856445,311.498199 644.798218,306.205780 647.655212,299.282837 
	C660.511353,268.130737 670.179260,236.182419 674.017273,202.501511 
	C676.120117,184.048172 676.631287,165.707367 674.569336,147.323349 
	C672.799011,131.538773 666.463379,117.767677 653.792664,107.726112 
	C642.736267,98.963951 628.339355,95.230118 614.288696,103.060059 
	C600.471558,110.759880 591.274292,122.524284 584.411072,136.315445 
	C569.350769,166.578339 564.107544,199.379288 560.484985,232.470459 
	C558.749023,248.327911 558.256226,264.320740 558.276672,280.305115 
	C558.286072,287.646362 554.462952,291.474518 547.231323,291.341980 
	C539.917725,291.207947 532.614136,290.483246 525.300903,290.374695 
	C509.323792,290.137512 493.355896,290.420563 477.389984,291.310425 
	C468.504944,291.805603 465.028595,288.234375 464.728973,279.269745 
	C464.311981,266.792511 463.993256,254.311951 463.604431,240.893692 
M422.846130,757.506653 
	C418.961700,755.446106 414.946228,754.080383 410.496796,755.389160 
	C403.121033,757.558777 396.077606,760.525696 389.558319,764.612854 
	C376.763977,772.634277 365.985565,782.919189 355.946381,794.140015 
	C334.680450,817.908936 319.754761,845.437073 307.330994,874.529602 
	C305.765320,878.195923 306.891754,879.882996 310.262665,881.384583 
	C319.227020,885.377930 327.984863,889.841492 336.994812,893.723633 
	C343.765350,896.640808 350.501434,899.858948 358.111725,901.240784 
	C359.385651,894.356262 360.512085,888.001465 361.744781,881.667297 
	C363.741974,871.405334 365.525787,861.089478 367.945618,850.926331 
	C369.563416,844.131653 375.713654,841.182495 382.881744,842.895081 
	C388.757050,844.298706 391.540558,849.205994 390.185577,856.142029 
	C385.921722,877.967896 381.597290,899.781982 377.282135,921.597839 
	C375.911163,928.529053 375.994507,928.542175 382.709015,930.439453 
	C406.231506,937.086121 430.187164,941.546204 454.382996,944.821838 
	C475.814575,947.723206 497.313751,948.172485 518.942810,947.986206 
	C542.135315,947.786316 564.962952,944.996155 587.772156,941.548340 
	C605.842590,938.816772 623.612183,934.571350 641.321350,930.079529 
	C644.640503,929.237610 645.427002,927.658020 644.745422,924.348083 
	C642.703857,914.433411 641.015198,904.446655 639.117065,894.501770 
	C636.631226,881.477966 633.944519,868.490967 631.608582,855.440796 
	C630.464478,849.048889 633.506958,843.810974 638.314392,842.791809 
	C646.621704,841.030701 651.728516,843.739990 653.484985,851.485779 
	C655.685486,861.189941 657.171936,871.057800 659.441101,880.743896 
	C661.078735,887.734558 660.819397,895.182739 664.055603,901.963196 
	C667.984253,900.500000 671.587280,899.239990 675.128113,897.824707 
	C687.799377,892.759827 700.316101,887.337402 712.592957,881.373596 
	C714.962830,880.222412 716.975098,878.929321 715.508606,875.655579 
	C713.128784,870.342773 711.113220,864.861938 708.621277,859.604919 
	C696.513611,834.062561 682.247559,809.923523 662.654297,789.251892 
	C649.594421,775.473267 635.388916,763.468872 617.086548,757.017395 
	C605.869263,753.063416 598.641724,754.173157 591.351685,765.395996 
	C569.853882,798.491333 538.232239,811.164612 499.864746,808.291382 
	C477.578888,806.622498 458.152252,797.934082 442.036041,782.019653 
	C434.718384,774.793884 429.900085,765.773193 422.846130,757.506653 
M491.545685,763.382324 
	C479.431732,763.012878 467.470947,760.209656 453.992157,760.435730 
	C471.569550,780.696594 492.938568,787.937378 517.612366,785.453857 
	C536.292908,783.573608 552.974365,776.764526 564.994324,760.819336 
	C540.768127,763.275513 516.668335,763.908386 491.545685,763.382324 
M920.442383,512.197327 
	C918.341248,522.429932 918.078247,532.646729 921.093872,542.745361 
	C922.801636,548.464172 925.565735,554.677612 931.687500,555.343994 
	C938.000061,556.031128 944.880249,553.775024 948.245361,547.252136 
	C956.152832,531.924133 955.829529,516.617004 947.099243,501.608734 
	C945.586243,499.007751 943.380249,497.556488 940.435730,496.860535 
	C930.606018,494.537079 924.155029,499.216248 920.442383,512.197327 
z"/>
<path fill="#000000" opacity="1.000000" stroke="none" 
	d="
M795.534546,191.108459 
	C783.761230,186.349136 782.163147,175.941940 784.237671,162.941315 
	C786.653259,147.803864 796.199280,137.092484 808.133118,128.637207 
	C822.695862,118.319328 839.157776,111.433868 857.100037,113.022484 
	C888.761963,115.825859 915.717834,127.887894 928.742737,159.457748 
	C942.779480,193.480377 927.044067,233.481354 891.231079,247.033661 
	C882.845032,250.207092 874.414978,253.499207 865.728088,255.579559 
	C856.202576,257.860748 851.508057,263.771179 849.324280,272.654724 
	C848.488831,276.053162 847.180176,279.301880 845.264465,282.265533 
	C840.286316,289.966522 831.455383,292.656433 823.024231,289.050568 
	C814.624817,285.458344 811.314331,278.628326 813.575623,269.151337 
	C816.593079,256.505798 819.864746,243.975372 828.613037,233.712433 
	C830.973206,230.943588 833.694885,228.984512 837.037354,227.754776 
	C850.771118,222.701996 864.547424,217.761383 878.228577,212.570175 
	C894.383972,206.440170 901.222839,182.142654 890.832581,168.260620 
	C876.491272,149.099945 849.542053,145.327530 830.518005,159.879761 
	C825.007141,164.095200 821.456360,169.777664 820.446106,176.565323 
	C818.693726,188.339798 810.921082,194.126846 799.386353,191.674362 
	C798.252869,191.433365 797.081970,191.368118 795.534546,191.108459 
z"/>
<path fill="#000000" opacity="1.000000" stroke="none" 
	d="
M839.044312,351.092224 
	C825.405945,360.699707 810.837036,358.470856 802.769714,345.810242 
	C794.383057,332.648499 798.540955,315.709015 811.985596,308.264404 
	C824.457092,301.358612 840.777100,307.320007 845.032532,321.103271 
	C848.297180,331.677490 847.772095,342.204681 839.044312,351.092224 
z"/>
<path fill="#000000" opacity="1.000000" stroke="none" 
	d="
M423.170288,501.547485 
	C430.924042,506.445343 434.022186,513.687317 435.856842,521.932556 
	C438.573334,534.140625 437.338715,545.651550 430.982910,556.495789 
	C426.037170,564.934143 418.769867,569.205566 408.848572,569.143799 
	C395.884888,569.063171 388.226990,561.847717 385.182709,550.233826 
	C381.969360,537.974915 382.525330,525.547791 388.284058,513.784668 
	C395.246674,499.562469 408.250671,494.860535 423.170288,501.547485 
z"/>
<path fill="#000000" opacity="1.000000" stroke="none" 
	d="
M626.922241,503.967621 
	C636.158997,513.646301 638.918030,525.223633 637.940491,537.712280 
	C637.219177,546.927429 634.443359,555.493103 627.683655,562.489319 
	C618.182312,572.323059 598.055054,572.117310 590.211548,557.105103 
	C582.021057,541.428589 582.300903,525.703491 591.300781,510.482513 
	C599.042175,497.389832 613.210510,494.874878 626.922241,503.967621 
z"/>
<path fill="#000000" opacity="1.000000" stroke="none" 
	d="
M492.842926,634.501709 
	C512.429382,630.201050 530.435120,631.662292 546.175659,645.063171 
	C554.157959,651.859009 553.879639,663.726929 545.295776,667.323730 
	C540.493042,669.336182 536.626892,667.758545 533.234070,664.187195 
	C523.074585,653.493042 508.620453,651.719788 497.642578,656.912170 
	C493.792419,658.733276 490.373657,661.545593 486.934021,664.138794 
	C480.013763,669.356140 474.941864,669.500854 470.787354,664.358154 
	C466.778870,659.396240 467.907745,650.435486 473.204712,645.902161 
	C478.938660,640.994873 485.511414,637.486938 492.842926,634.501709 
z"/>
<path fill="#000000" opacity="1.000000" stroke="none" 
	d="
M417.919189,431.566742 
	C423.494537,427.283356 432.074432,430.955444 434.397247,435.195374 
	C437.112305,440.151459 435.244720,446.855133 429.904968,450.495056 
	C415.815338,460.099365 400.199860,465.065765 383.158020,465.328918 
	C374.829834,465.457520 370.698914,461.527893 370.661499,453.932556 
	C370.626953,446.920898 375.090454,442.943420 382.930878,442.622498 
	C395.431946,442.110840 407.190643,439.070343 417.919189,431.566742 
z"/>
<path fill="#000000" opacity="1.000000" stroke="none" 
	d="
M596.375122,429.711365 
	C600.417236,429.293488 603.504639,430.240234 606.552734,432.424316 
	C616.147766,439.299500 627.253296,441.696014 638.790955,442.679840 
	C643.397278,443.072632 648.209412,443.248962 650.696045,448.284546 
	C654.806763,456.608917 649.241882,465.406372 639.375671,465.232178 
	C623.160278,464.945923 607.908630,460.937744 594.450562,451.439331 
	C592.437073,450.018311 590.186096,448.852783 588.774902,446.664581 
	C584.358093,439.815826 587.358276,432.709534 596.375122,429.711365 
z"/>
<path fill="#000000" opacity="1.000000" stroke="none" 
	d="
M520.632446,561.370850 
	C524.261597,565.424011 524.762085,569.985779 524.246765,574.716309 
	C523.721375,579.539001 520.493469,582.291504 515.562744,582.390381 
	C513.240845,582.436951 510.917297,582.394470 508.594788,582.418762 
	C500.509338,582.503296 498.792755,581.443909 497.121002,575.305847 
	C495.590057,569.684692 498.401001,562.412415 503.205536,559.720520 
	C509.214447,556.353943 514.936584,556.898682 520.632446,561.370850 
z"/>
</svg>